<?xml version="1.0" encoding="utf-8"?>
<!-- Generator: Adobe Illustrator 14.0.0, SVG Export Plug-In . SVG Version: 6.00 Build 43363)  -->
<!DOCTYPE svg PUBLIC "-//W3C//DTD SVG 1.1//EN" "http://www.w3.org/Graphics/SVG/1.1/DTD/svg11.dtd">
<svg version="1.1" id="Layer_1" xmlns="http://www.w3.org/2000/svg" xmlns:xlink="http://www.w3.org/1999/xlink" x="0px" y="0px"
	 width="250px" height="198px" viewBox="0 0 250 198" enable-background="new 0 0 250 198" xml:space="preserve">
<g>
	<path fill="#1B3561" d="M8.59,172.213c0.156,0.052,0.156,0.318,0.371,0.208c0.897-1.054,1.587-2.263,2.433-3.323
		c3.434-1.046,7.131-1.565,10.829-1.929c0.208,0.111-0.156,0.268,0.052,0.371c0.048,1.958-0.06,3.961,0.2,5.808
		c11.092-3.619,22.451-6.653,34.437-8.055c1.269,1.268,2.637,2.439,4.117,3.39c5.285-2.471,10.725-4.569,16.169-6.676
		c3.323,0.964,7.02,0.92,10.502,1.402l-1.272,1.95l0.267,0.104c1.635,0.06,3.274,0.008,4.854,0.067l12.832-0.237l11.144-0.505
		c4.068-1.253,8.033-2.833,12.101-4.087c0.63-0.163,1.372-0.689,1.898-0.155c0.155-0.111,0.319-0.319,0.475-0.319
		c8.233,1.869,16.202,4.31,24.165,6.757c0.159,0.111,0.582,0.163,0.479,0.482l1.104,0.526c1.532,0.379,3.06,1.017,4.539,1.595
		c0.315,0.268,0.895,0.156,0.895,0.638c-0.319,0.786-0.794,1.528-1.009,2.27c10.454,0.386,20.167,2.737,29.875,4.918l13.67,3.679
		l2.478,0.846l-0.371,1.053l6,6.461c4.443-3.271,8.834-6.742,13.44-9.687c0.048-0.423,0.578-0.371,0.842-0.631l1.001,0.319
		c4.432,2.01,9.075,3.5,13.559,5.466l0.526-0.734c-1.424-1.009-3.056-1.698-4.535-2.551c-0.567-3.909-1.514-7.603-2.396-11.408
		l-4.094-13.684c-1.991-6.023-3.883-12.105-6.505-17.809l0.264-0.475c-1.524-3.486-2.837-7.076-4.729-10.406
		c0.264-0.423,0.79-0.475,1.001-0.897c-1.253-3.968-3.152-7.61-4.669-11.415c0.53,0.052,1.161,0.215,1.532-0.215
		c-1.209-3.486-2.838-6.757-4.365-10.087c0.107-0.319,0.479-0.216,0.686-0.371c-1.672-4.489-4.094-8.613-6.304-12.844l0.374-1.476
		c-1.42-2.959-3.371-5.711-5.314-8.458c0.264-0.373,0.742-0.528,0.897-1.003c-0.993-3.063-2.307-6.026-3.782-8.878l0.215-0.211
		c2.529,0.642,5.066,1.439,7.858,1.495c0.905-0.417,1.539-1.42,1.91-2.266c-1.896-1.957-4.058-4.124-5.9-6.189
		c-7.48-8.253-14.956-16.611-17.945-26.861c-1.951-1.854-3.846-3.809-5.797-5.609c-1.58-0.373-3.43-0.428-5.014-0.272
		c-2.481-1.591-5.381-2.602-8.548-2.451l-0.104-0.16l0.475-1.37l-0.052-0.16c-1.847-0.424-4.22-0.486-5.963,0.148
		c-0.582,0.156-1.057,0.577-1.64,0.63c-0.267-0.159-0.318-0.479-0.259-0.793c-0.897-1.849-1.892-3.703-3.315-5.392l-1.64-0.692
		c-1.261-1.743-2.736-3.49-4.584-4.762c-0.682-0.582-1.632-0.691-2.214-1.379c-2.162-0.319-4.168-0.907-6.122-1.754
		c-0.42-0.371-1.317-0.056-1.425-0.845c-1.684-0.479-3.374-0.909-5.01-1.489c-0.471-0.319-0.419-1.059-0.687-1.533l-0.682-0.004
		c-4.491,0.94-9.346,1.298-13.993,1.237l-0.319-0.16c-0.211-0.949-0.523-1.898-0.89-2.798c-2.54,1.788-5.077,3.577-7.617,5.316
		c-2.273,1.682-4.754,2.895-6.976,4.628c-0.634,0.161-0.527-0.581-0.901-0.846c-0.523-0.213-1.102-0.107-1.632-0.165
		c-2.058,0.156-4.491,0.152-6.653-0.117c-4.484-0.38-9.186-0.391-13.51-1.192c-2.7,2.37-4.769,5.164-5.674,8.381l0.156,0.319
		c-0.846,2.004-1.276,4.224-1.539,6.49c-0.382,3.061,0.037,6.019,0.456,8.871c-0.215,0.315-0.586,0.315-0.846,0.213
		c-1.472-4.705-1.298-10.827,0.667-15.263c-0.482-0.054-1.057,0-1.483,0.052c-1.691,0.152-3.323-0.482-5.014-0.382
		c-1.061,3.482-1.813,7.389-0.868,11.088c0.371,1.424,1.157,2.747,1.839,4.015c-0.742,0.686-1.795,0.896-2.752,1.207l-0.259-0.156
		c-0.738-1.535-1.261-3.119-1.732-4.754c-1.168,3.164-1.969,6.592-1.98,10.184c-0.052,1.373,0.312,2.587,0.367,3.803
		c-1.854,1.947-3.394,4.113-4.606,6.325c0.1,0.79,0.73,1.322,0.89,2.061c-1.803,1.37-3.545,2.737-5.185,4.422
		c-0.319,1.743-0.43,3.486-0.49,5.225c0.527,1.114-0.634,1.583-1.272,2.166l-0.211,1.53c-0.586,0.897-1.587,1.42-2.329,2.001
		c-0.267,0.844-0.164,1.745-0.531,2.481c-0.745,1.791-2.333,3.319-2.125,5.327c-0.275,2.16,0.623,3.855,1.253,5.706
		c0.793,1.218,1.368,2.589,1.943,3.911c0.052,1.689,1.317,2.91,2.366,4.124l0.423,0.054c0.475,0.052,0.423,0.742,0.901,0.797
		c0.419-0.267,0.842-0.319,1.213-0.742l2.429-0.152c0.367,0.267,0.582,0.689,0.634,1.057c-0.271,0.686,0.204,1.32,0.312,1.955
		c1.943,3.913,4.102,7.719,6.942,11.257v0.318c-0.793,1.009-2.062,1.425-3.019,2.27c-5.811,3.464-11.837,7.15-16.863,11.786
		c-0.219,1.372-1.116,2.484-1.961,3.59c-0.215,0.318-0.583,0.63-0.957,0.571c-0.63-0.475-1.476-0.794-2.318-1.002
		c-1.851,0.942-3.119,2.634-4.81,3.946c-2.915,3.056-6.457,5.845-8.737,9.22c-0.156,0.37,0.371,0.793,0.156,1.164
		c-0.95,1.372-1.958,2.744-3.067,4.005c-1.22,1.691-2.6,3.427-3.868,5.17C14.379,157.542,10.555,164.507,8.59,172.213"/>
	<path fill="#1B3561" d="M10.362,159.018l0.631-0.318c3.393-6.431,7.792-12.498,12.29-18.402l-0.838-1.898l0.215-0.423
		c5.236-5.11,10.896-10.116,16.184-14.804l3.278-0.994c0.052-0.475-0.742-1.105,0-1.372c5.919-3.946,11.741-8.314,17.719-12.053
		c-2.218-3.123-3.946-6.396-5.629-9.781c-0.052-0.208,0.371-0.423-0.052-0.579c-0.53,0.267-1.113,0.423-1.536,0.842
		c0.111,0.156,0.156,0.419-0.052,0.475c-0.319,0-0.793,0.575-1.005,0l-1.316-1.799l-1.528,0.048l-2.054-3.015l-0.69-0.107
		c-0.312-0.845-0.786-1.743-0.786-2.692l0.375-0.421l-0.79-1.956l-2.054-2.225c0-0.475,0.478-0.838,0.638-1.265
		c-0.416-1.795-0.942-3.538-1.413-5.335c1.005-1.37,2.222-2.685,3.282-4.007l0.534-3.429c0.319-0.209,0.742-0.209,1.057-0.471
		l1.113-1.583l0.271-1.899l0.897-0.369c0.375-2.11,0.538-4.381,0.753-6.545c0.53-0.315,1.216-0.104,1.743-0.419
		c-0.367-0.634,0.159-1.269,0.53-1.845c1.061-1.37,2.381-2.688,3.656-3.847c-0.475-0.687,0.052-1.584,0.164-2.377
		c0.53-1.686,1.061-3.323,1.906-4.906c0.423-0.102,0.85,0.267,1.32,0.323c-0.571-3.011-0.512-6.284-0.03-9.346
		c0.534-3.113,1.387-6.019,2.344-8.969c0.578,0.102,1.157,0.634,1.735,0.793l0.111-0.054c-0.312-2.483-0.467-5.229,0.119-7.656
		c0.426-0.262,1.009-0.208,1.428-0.421c0.315-0.156,0.897,0.058,0.953-0.417c0.263-0.688-0.104-1.583,0.479-2.112l4.91,0.699
		c1.643-3.323,4.603-6.381,7.777-8.537c0.527,0.213,1.001,0.581,1.476,0.793c0-0.684,0.111-1.37,0.06-2.058l0.953,0.004
		c7.072,0.91,14.355,1.561,21.587,1.949c4.495-2.58,10.792-6.59,15.124-9.483l1.053,1.28c0.159,0.367,0.842,0.847,0.104,1.109
		c-0.163,0.213-0.371,0.315-0.475,0.475l0.104,0.105c5.066,0.593,10.399,0.92,15.309,0.035c0.267,0.315,0.367,0.686,0.422,1.109
		c1.899,0.638,3.954,0.853,6.067,0.911c0.423,0.315-0.107,0.844,0,1.265c2.321,1.116,4.959,1.702,7.599,1.971
		c0.315,0.319-0.163,0.688-0.219,1.003c2.904,1.33,5.541,3.497,7.807,6.038l0.738-0.102c1.476,1.689,2.629,3.697,3.471,5.708
		c2.8-0.733,6.127-0.566,8.923-0.087c0.319,0.16,0.104,0.373,0.104,0.634l-0.056,1.322c2.533,0.269,4.858,1.013,7.021,2.285
		c1.269-0.208,2.585-0.048,3.798,0.274l1.587-1.109c0.212,0.054,0.264,0.213,0.264,0.425c2.002,2.223,3.901,4.391,6.219,6.191
		c0.415,1.902,1.153,3.751,1.991,5.494c0.367,0.105-0.003,0.424,0.212,0.58c5.096,11.048,13.577,20.834,22.317,30.146
		c-0.263,1.055-1.112,1.792-1.798,2.635l-1.588,1.37c-1.583,0.365-3.223,0.414-5.018,0.41l-0.052,0.106
		c0.89,2.01,1.787,3.966,2.573,6.024c-0.052,0.424-1.005,0.58-0.422,1.001c1.787,2.435,3.1,5.025,4.205,7.721
		c-0.212,0.581-0.897,1.159-0.742,1.845c2.841,3.39,5.107,6.979,6.995,10.738c0.155,0.475,0.422,0.949,0.312,1.424
		c-0.26,0.26-0.734,0.044-0.95,0.26c1.58,3.753,2.997,7.558,3.938,11.57c-0.215,0.104-0.318,0.318-0.37,0.526
		c1.731,3.701,3.627,7.299,5.095,11.052c-0.267,0.26-0.842-0.06-1.104,0.26c1.624,3.642,2.885,7.395,4.139,11.147l-0.367,0.052
		v0.423c1.316,2.381,2.313,4.917,3.256,7.454l-0.104,0.104l2.202,6.445l3.987,13.313c0.778,4.065,1.936,8.025,2.61,12.149
		c1.899,1.009,3.798,2.069,5.645,3.182l-1.061,2.581c-1.22,0.846-2.226,2.003-3.338,2.952c-4.747-2.225-9.493-4.457-14.448-6.312
		c-4.446,2.996-8.678,6.683-12.275,10.896l-3.538,0.104c-2.792-2.492-5.532-4.813-8.218-7.521l0.212-1.313
		c-9.335-3.983-19.418-6.067-29.977-7.143l-13.091-0.928l-0.475-0.111l-1.898-2.01c0.215-0.415,0.43-0.89,0.849-1.261l0.004-0.267
		c-8.863-3.924-17.993-7.062-27.279-9.88c-4.755,1.417-9.457,2.938-14.16,4.51l-0.682-0.638l-7.554,0.512l-17.107,1.23
		c-2.166,0-4.22,0.26-6.338,0.356c-0.523-0.689-0.946-1.587-1.369-2.433c-3.115-0.06-6.757-0.912-9.553,0.349
		c-4.28,1.527-8.3,3.834-12.424,5.785c-0.371,0.155-0.742,0-1.053-0.111c-0.163-0.104-0.215-0.267-0.423-0.371
		c-0.215,0.26-0.526,0.475-0.897,0.319c-1.261-1.432-2.477-2.967-3.79-4.398c-3.597,0.631-7.187,1.521-10.725,2.515l-14.9,4.034
		c-2.848,0.786-5.704,1.521-8.452,2.515c-0.264,0.156-0.531,0.794-0.901,0.423l-1.261-0.905c0.163-2.054,0.219-4.22,0.066-6.334
		c-1.902,0.423-3.964,0.623-5.971,0.986c-1.272,1.483-2.7,2.952-4.072,4.376c-0.586-0.155-0.949-0.682-1.053-1.268L5,172.094
		C6.276,167.563,8.082,163.179,10.362,159.018"/>
	<polygon fill="#1B3561" points="67.207,22.769 63.684,33.68 61.221,35.793 60.168,49.871 55.784,56.528 52.758,63.067 
		49.606,70.989 46.439,74.862 44.681,80.848 45.382,87.889 48.197,94.223 52.424,98.096 55.591,97.74 61.577,109.71 37.991,126.257 
		24.614,138.576 23.558,142.44 12.647,157.223 8.775,165.679 7.018,172.361 8.775,174.119 12.294,170.247 20.746,169.194 
		20.746,175.884 55.944,166.376 60.869,170.604 77.06,162.86 84.451,164.974 85.156,167.437 116.485,165.322 129.524,160.546 
		159.074,170.952 159.074,175.18 184.771,177.286 203.424,183.628 212.225,192.075 226.31,180.809 240.387,187.144 243.554,183.271 
		237.568,180.461 233.344,161.799 229.469,149.836 224.544,135.758 221.726,124.848 217.505,117.453 217.505,112.528 
		214.338,105.481 214.338,101.612 208.353,92.459 208.353,88.237 204.132,82.958 204.132,79.439 201.662,73.808 208.353,74.51 
		210.814,71.343 203.071,63.6 197.09,56.208 191.104,47.058 186.88,36.496 179.485,31.213 173.855,29.808 167.874,28.4 
		164.707,26.641 159.43,26.991 155.559,21.36 146.896,15.482 138.654,11.858 133.589,9.728 118.948,9.04 116.485,6.93 
		103.109,16.081 80.479,14.341 72.131,22.769 	"/>
	<path fill="#CDB87C" d="M24.563,142.938c0.211-0.741,1.376-1.268,1.057-2.113c-0.263-0.794,0.579-1.477,1.053-2.166
		c2.8-3.219,6.179-6.282,9.293-9.234c1.053-0.904,2.059-1.958,3.219-2.589c0.957,0.208,1.743,0.631,2.537,1.054
		c0.897-0.526,1.372-1.528,1.951-2.381c0.267-0.52,0.586-1.046,0.638-1.684c5.963-5.652,13.039-9.294,19.588-13.625
		c1.372,1.535,2.956,2.959,4.54,4.013l-0.052,0.215l-2.484,1.269l-1.691-1.535c-0.523,0.215-1.209,0.533-1.58,0.949l0.371,0.897
		c-0.901,0.741-1.958,1.112-2.855,1.854c0.215,0.312,0.686,0.631,0.638,1.054c-1.483,0.846-2.855,1.847-4.332,2.589
		c-0.211-0.475-0.371-0.95-0.578-1.425l-0.527,0.26c-1.268-0.155-2.748-0.312-3.909,0.104l1.261,1.112l-0.1,0.312
		c-2.692,1.854-5.336,3.908-7.814,6.126c-0.107,0.742-0.422,1.432-0.319,2.218c-4.379,2.433-8.552,5.281-12.409,8.923l-1.053,6.653
		c0.264,0.423-0.263,0.371-0.475,0.475c-0.319,0.06-0.371-0.475-0.686-0.363c-5.704,6.066-10.614,12.46-14.311,19.373
		c2.744-0.052,5.596-0.371,8.344-0.526c0,0.845,0.371,1.527,0.156,2.27c10.877-2.27,21.969-4.332,33.109-5.964l3.642,2.789
		c6.179-2.373,12.405-4.531,18.795-6.438l0.052,0.475c3.378,0.215,7.076,0.215,10.455,0.318l0.052,0.268l-1.212,3.167
		c0.156,0.104,0.211-0.163,0.367-0.163l24.821,0.326l2.266-0.06l9.026-5.014c0.794,0.526,1.376-0.475,2.062-0.689l6.02,2.433
		c0.315,0.155,0.475-0.216,0.634-0.319c7.495,2.692,15.209,4.91,23.13,6.497c2.374,0.416,4.691,0.949,7.072,1.372
		c-0.159,0.26-0.211,0.527,0.048,0.683l0.111,0.897l-0.479,0.586l0.738,0.312c5.548,1.432,11.037,3.063,16.525,4.599l0.794-1.269
		c8.552,1.002,16.896,2.478,25.076,4.272c0.268,0.689,0.319,1.535,0.371,2.27c1.584,1.958,2.907,4.124,4.487,6.074l0.371-0.052
		l12.831-6.705c0.371-0.37-0.052-0.897,0.104-1.476c1.32-0.06,2.748,0.363,4.172,0.155c-2.43-13.677-6.179-26.871-10.825-39.703
		c0.267-0.155,1.005,0.104,0.849-0.475l-4.49-10.829l0.475-0.104l-0.104-0.475c-0.845-2.218-1.531-4.539-2.532-6.809
		c-0.375-0.156-0.742,0.423-1.116,0c0.267-2.692,0.481-5.541,0.793-8.345c-1.001-2.848-2.425-5.54-3.745-8.29l0.26-2.162
		l-3.056-4.435l0.37-3.38c-1.958-3.008-4.013-5.965-6.341-8.817c2.062,8.923,3.642,18.428,3.485,28.242
		c-2.796-3.797-5.911-7.603-9.346-11.242c0-0.26,0.053-0.526,0.319-0.682l-3.434-5.544l-4.065-2.906h-0.159
		c-2.373,3.907-5.277,7.656-8.76,10.927c0.575,0.53,0.523,1.372,0.738,2.061c-1.432,1.424-3.063,2.588-4.591,3.908
		c-0.375-0.897-0.582-1.95-0.957-2.959c-0.842-0.527-1.791-1.002-2.744-1.32c-0.687,0.155-0.742,1.32-1.584,1.001
		c-0.159,0-0.318,0.215-0.207,0.423l0.682,4.332l-0.107,0.104l-1.791-0.423l-0.107,0.111c0.052,0.63,0.371,1.157,0.264,1.787
		c-0.527,0.06-1.058-0.26-1.688-0.312c0,0.69,0.155,1.372,0.263,2.055c-0.686-0.097-1.32-0.415-2.006-0.63l-4.116,2.484
		c-0.742-0.371-1.269-1.165-1.799-1.743l-0.419,0.052c-3.167,1.64-6.334,3.219-9.449,4.962c0.26,0.319,0.842,0.475,0.842,0.949
		c-7.287,0.846-14.204,2.485-20.063,6.868l-1.583,3.798c0.155,0.423,0.634,0.794,0.845,1.269c-0.741,1.164-1.639,2.27-2.588,3.322
		v0.111c1.164-0.215,2.27-0.638,3.326-1.061c-0.107-0.63-0.526-1.157-0.901-1.684c1.269-1.009,3.067-1.216,4.65-1.69
		c3.271-0.69,7.076-0.69,10.455-0.371l1.265,2.952c-6.55,1.483-12.936,3.278-18.372,7.506c-0.268-0.111,0.104-0.371,0.052-0.638
		c-0.159-0.268-0.475-0.475-0.742-0.69l-0.312,0.111c-0.69,1.632-1.324,3.271-2.325,4.747c-0.53,0.111-1.265,0.111-1.691,0.423
		c0,0.267,0.267,0.104,0.319,0.267l-0.108,0.371c-1.112,1.209-2.374,2.218-3.538,3.271l1.691,2.113
		c-1.532,1.32-3.327,2.27-5.125,3.167c-0.367-0.63-0.897-1.216-1.476-1.795c-1.265,0.846-2.589,1.528-3.909,2.27
		c0.215,0.579,0.793,1.002,1.009,1.528c-1.691,0.897-3.538,1.535-5.493,1.854c-0.263-0.319-0.107-0.846-0.634-1.061
		c-0.475,0.104-1.32,0-1.269,0.741c-0.897,0.578-1.743-0.208-2.641,0.371l0.215,0.475c-1.958,0.312-3.805-0.215-5.652-0.526
		c-0.953-0.216-1.847-0.586-2.744-1.002c-0.638,0.097-1.001,0.631-1.532,0.891c-2.377-0.734-4.383-2.374-6.494-3.901
		c0-0.111-0.059-0.163,0-0.319c0.527-0.267,0.897-0.689,1.372-1.009c-0.215-0.363-0.742-0.155-1.112-0.155l-2.055,0.215
		c-1.799-1.587-3.067-3.486-4.436-5.281c0.527-0.897,1.105-1.743,1.528-2.692l-2.166-2.641l0.742-1.958
		c0-0.363-0.475-0.475-0.526-0.838c-0.427-0.586-0.315-1.432,0.052-2.01c0.156-0.156,0.315,0,0.371,0.155
		c0.367,0.742,1.053,1.372,1.688,1.906c0.156,0.475-0.686,1.165,0.107,1.477c0.475,0.052,0.208-0.579,0.527-0.846l0.107-0.156
		c-4.491-5.866-7.183-13.521-4.91-21.071c0.048-0.104,0.208-0.104,0.264,0c1.424,2.959,3.479,5.651,6.071,8.084
		c0.208,0.104,0.315-0.163,0.315-0.318c-1.109-2.478-2.374-4.962-3.063-7.654c0.211-2.063,0.582-4.064,1.057-6.075
		c0.056-0.052,0.16-0.052,0.267-0.052c0.367,0.363,0.683,0.897,1.109,1.157c-0.16-1.209-0.426-2.633-0.534-3.953l1.532-4.754
		c-1.476-2.535-2.741-5.172-3.85-7.918c-1.375,1.266-2.644,2.798-3.96,4.222c0.315,0.897,0.634,1.899,1.265,2.64
		c-0.471,2.746-0.579,5.81-0.471,8.762l-4.91,2.276c-1.061-1.75-1.005-4.02-1.376-6.126c0.156-0.267,0.634-0.215,0.526-0.586
		c0.056-0.208,0.267-0.052,0.371-0.104c0.267-0.319,0.423-0.683,0.479-1.105l-0.211-0.319c0.312-0.052,0.419-0.423,0.367-0.689
		c-0.211-0.052-0.211-0.26-0.156-0.423c0.1-0.104,0.367-0.155,0.315-0.363c-0.107-0.163-0.215,0.104-0.315,0
		c0.1-2.063,0.63-4.015,0.894-6.024l-1.213-1.688c-0.367,0.53-0.422,1.165-0.79,1.587c-0.583-0.267-0.742-1.057-1.32-1.376
		c-0.638,5.336-0.423,11.246,0.949,16.267c-0.69,0.527-1.268-0.378-1.847-0.638c-5.018-3.693-7.395-9.084-9.928-14.153
		c-0.427-0.583,0.156-1.213-0.211-1.843l0.052-0.161c-0.793-0.315-1.902-0.102-2.796-0.05c-0.423,0.315-0.897,0.686-1.424,0.686
		l-0.638-0.738c-1.053-0.054-1.48-1.269-2.11-1.956c-0.53-0.688-1.005-1.478-0.949-2.431c-0.634-1.105-0.901-2.425-1.695-3.482
		c-0.63-1.689-1.528-3.327-1.476-5.277c0-0.897-0.052-1.743,0.215-2.591c0.682-1.159,1.157-2.319,1.743-3.536
		c0.475-0.421,0.419-1.161,0.527-1.849c0-1.478,1.898-1.478,2.477-2.746l0.319-1.635l1.213-1.003c0-2.112-0.048-4.276,0.419-6.286
		c1.643-1.636,3.382-3.113,5.177-4.432c-0.367-0.634-0.734-1.32-0.842-2.116c1.268-2.164,2.8-4.382,4.591-6.334
		c-1.005-4.697,0.107-9.712,1.635-13.94c0.052-0.156,0.163,0.057,0.267-0.048c0.526,1.635,0.949,3.327,1.743,4.803
		c-0.634,0.373-1.483,0.475-1.958,1.163c-0.152,1.53-0.104,3.113,0,4.645c0.53-0.054,1.005-0.315,1.483-0.634
		c0.423-1.372,0.63-2.8,1.213-4.117l0.159,0.052c1.001,2.427,2.27,4.698,3.642,6.916l-0.104,0.106l-2.588-0.79
		c-0.052,0.684,0.267,1.478,0.267,2.214c-0.056,0.265-0.371,0.213-0.583,0.054l-1.532-1.318c-1.268,0.529-2.537,1.53-3.326,2.746
		c0.1,0.367,0.63,0.208,0.686,0.634c-0.475,1.001-1.161,1.849-1.536,2.848c0,0.373,0.164,0.688,0.267,1.001
		c0.052,0.901,0.423,1.637,0.638,2.431c0.475-1.109,0.682-2.323,1.053-3.534c0.315-0.107,0.634,0.315,0.897,0.527l1.528,1.478
		c0.263-0.634,0.319-1.375,0.582-1.956c1.109,0.742,1.955,1.902,2.748,2.906l1.636,2.484c-0.156,0.262,0.052,0.577,0.107,0.842
		l0.156,0.156c1.112-0.156,2.062-0.684,3.115-0.949c1.958,1.113,3.749,2.59,5.437,4.12c0.582,0.897,1.424,1.109,2.381,1.003
		c0.63,0.159,1.368-0.421,1.688,0.265l-0.052,0.528c-2.429,1.055-4.858,2.164-7.127,3.642l-0.056-0.105
		c0.156-0.897,0.156-1.899,0.104-2.8c-1.476,1.637-2.952,3.326-4.22,5.069c-0.793-0.105-1.587-0.265-2.481-0.208
		c-0.159,0.63,0.367,1.21,0.846,1.686c-1.272,2.323-2.744,4.541-3.75,6.972c0.052,1.583,0.312,3.221,0.579,4.751
		c0.315,0.261,0.583-0.106,0.793-0.213c3.167,0.319,6.282,0.742,9.186,1.637L76.99,88.5c1.268,0.373,2.64,0.634,3.857,1.055
		c0.578-0.208,0.263-0.949,0.526-1.316c5.596,1.951,10.77,4.962,15.947,7.813c0.475,0,0.742-0.319,1.161-0.371
		c0.849,0.211,1.479,0.846,2.325,1.057l3.909-1.741c-0.215-0.106-0.375-0.319-0.375-0.584l0.056-0.104
		c1.632-0.686,3.271-1.32,5.014-1.795l1.32,0.74c0.63-0.16,1.372-0.265,1.951-0.528c-0.263-0.371-0.894-0.211-1.105-0.74
		c0.475-0.319,1.105-0.421,1.691-0.528c0.63,0.209,1.053,0.949,1.795,0.897l2.374-0.423c2.485,1.163,4.91,2.59,7.339,4.013
		c0.211-0.367-0.052-1.001,0.263-1.372c1.95,0.846,3.854,1.902,5.756,2.904c0.104-0.475-0.423-1.001-0.052-1.376
		c1.795,0.849,3.426,1.906,5.121,2.8c0.522-0.208,0.264-0.842,0.367-1.368l3.749-2.959c-0.738-1.793-1.851-3.434-3.274-4.964v-0.156
		c2.325,0.261,4.547,1.109,6.653,2.004c0.741-0.634-0.371-1.268-0.579-1.902c-0.846-1.316-2.058-2.639-3.274-3.85l0.104-0.107
		c2.378,0,4.491,0.897,6.653,1.691c0.319-0.213,0.427-0.634,0.687-0.901c-0.842-1.636-2.003-3.167-3.271-4.697
		c-0.052-0.209,0.268-0.209,0.423-0.16c1.269,0.213,2.374,0.848,3.59,1.214c-0.104-0.367-0.846-0.686-0.634-1.109
		c0.793-0.105,1.479,0.423,2.218,0.634l2.273,1.159c0.259,0.213,0.207,0.475,0,0.74c0.838,2.959,1.95,6.232,1.001,9.399
		c-0.794-1.53-1.951-3.167-3.274-4.489c0.315,1.163,0.793,2.271,1.108,3.434c0.69,2.323,0.897,5.173,0.156,7.546
		c-1.265-1.368-2.478-2.952-4.064-4.061l-0.104,0.052c0.212,1.532,0.638,3.06,0.371,4.592c-0.689,0.366-0.634,1.16-0.479,1.798
		c0.319,2.001,0.319,4.167,0.212,6.177c1.268,0.526,2.64,0.846,4.064,0.846l1.483-2.166c1.579,0.312,3.063,1.105,4.535,1.743
		c0.427-0.111,0.953-0.475,1.057-0.949c-1.057-0.905-2.373-1.483-3.59-2.114c-0.682-0.318-1.424-0.526-2.113-0.897
		c0.371-0.846,0.849-1.743,1.479-2.482l2.218,0.896c0.901-0.74,1.531-1.793,2.429-2.583c1.958,0.683,3.857,1.636,5.704,2.635
		c0.318-0.052,0.318-0.415,0.53-0.631c-1.747-1.162-3.646-2.004-5.492-2.905c0.683-0.897,1.476-1.847,2.27-2.64
		c3.905,0.53,7.547,2.062,11.088,3.593c1.369-0.794,2.478-2.11,3.643-3.171c0.475-0.949,2.903-1.847,1.32-3.007
		c0-0.211-0.476-0.319-0.208-0.581c4.061-4.595,6.965-9.714,8.655-15.311c-0.267-0.742-0.371-1.532-0.793-2.218
		c0-0.267,0.314-0.107,0.422-0.267l0.371-0.683c-1.216-3.642-3.011-7.076-5.28-10.298l-0.216-0.104
		c-2.373,0.104-4.802,0.104-7.12,0.315l-0.267-0.262c-1.265-2.692-2.692-5.336-4.384-7.815c-0.526,0.159-1.053,0.58-1.584,0.421
		l-2.325-3.907c0.319-0.369,0.85-0.528,1.269-0.738l-0.052-0.265l-3.909-5.754c-5.169-2.429-10.77-4.013-16.84-4.332
		c-0.107,0.371-0.687,0.899-0.107,1.165c4.224,1.057,8.129,2.902,11.407,6.123c0.052,0.106,0,0.16-0.111,0.211
		c-4.324-1.689-9.397-2.164-14.411-1.689c0.104,0.949,0.741,1.796,0.794,2.692c-2.641,0.213-5.333,0.369-7.814,1.003
		c-1.851,0.421-3.586,1.109-5.277,1.849c-0.426-0.58-0.846-1.322-0.741-2.164c0-0.213-0.212-0.108-0.315-0.054
		c-1.112,0.844-2.429,1.215-3.697,1.638l-0.156-0.054c-0.371-1.003-0.901-1.902-1.113-3.011c1.536-0.79,2.96-1.686,4.332-2.902
		c0.314,0.054,0.263,0.475,0.582,0.583c2.533-0.794,5.065-1.638,7.81-1.691c0.475,0.529,0.842,1.163,1.376,1.638l0.687-0.74
		l2.585-0.528c-0.423-1.424-1.005-2.902-1.58-4.381c0.894-0.583,1.898-1.109,2.692-1.953c-2.218,0.261-4.754,0.736-7.343,0.421
		c-0.949-0.052-2.003-0.208-2.796-0.686c1.268-1.057,2.744-2.166,3.693-3.642l-0.104-0.054c-3.063,1.003-6.391,1.902-9.873,1.478
		c-0.159-0.05-0.107-0.315-0.052-0.423c1.743-0.949,3.478-2.479,4.695-4.116l-0.052-0.056c-2.059,0.74-4.384,0.899-6.653,1.164
		l-3.007,3.167c3.586,2.427,7.602,4.17,12.038,4.75l1.636,1.953c-0.526,0.478-1.372,0.424-2.11,0.532
		c-1.636,0-3.274-0.107-4.751-0.532c0-0.417,0.104-1.052,0.104-1.583l-0.056-0.106l-0.212,0.211
		c-1.372,3.062-4.379,5.757-7.81,5.757c-0.319-0.793-0.638-1.587-0.949-2.431c-1.216,0.369-2.381,0.949-3.538,1.428
		c-1.639-1.001-2.537-2.798-3.33-4.328c-0.259,0.736-0.104,1.583-0.156,2.374c-1.958,1.269-4.064,2.058-6.178,3.011l-0.423,4.958
		c-0.156,0.16-0.319,0-0.423-0.156c-1.587-2.429-3.642-4.595-5.385-7.02l0.052-0.108c1.583,0.108,3.167,0.16,4.702,0l0.104,0.369
		c4.754-2.533,9.234-5.965,13.41-9.926l-0.526-0.634c1.053-1.265,2.477-2.218,3.534-3.536c1.743-1.845,3.223-3.855,4.595-5.913
		v-0.319c-0.475-0.79-0.953-1.636-1.583-2.425c-3.111,3.853-6.968,7.603-10.77,10.981c0.156,0.843,0.634,1.531,0.949,2.271
		l-0.315,0.369c-4.595,3.534-9.293,6.6-14.471,8.711c-2.9-3.38-6.015-6.494-9.449-9.345l0.211-0.16l2.8-1.216
		c1.691,0.901,3.115,2.696,4.65,3.855c-0.793-1.53-1.958-3.062-3.278-4.382l1.955-0.844c2.218,1.743,3.642,4.066,5.173,6.232
		c-0.319,0.634-1.372,0.736-1.372,1.476l0.682,0.475c3.961-2.27,7.87-4.803,11.459-7.97c-0.104-0.267-0.263-0.688-0.583-0.688
		c-1.531,1.109-3.007,2.271-4.646,3.113l-0.312-0.105l-3.594,1.849c-0.53-0.315-1.005-0.842-1.424-1.424
		c0.894-0.371,1.739-0.845,2.585-1.428c0.215-0.634-1.424-1.424-0.048-1.845c4.854-3.171,9.394-7.287,13.618-11.723
		c0.211,0,0.107,0.213,0.107,0.265l1.372,1.532c0.846-0.529,1.587-1.269,2.218-2.112c-0.319-0.74-1.213-1.268-1.688-1.956
		c1.057-1.161,2.006-2.483,3.111-3.534c0.056,0.682,0.264,1.424,0.423,2.058c5.812-1.163,11.671,0.211,16.422,2.9l0.104-0.102
		l0.211-2.271c0.319-0.265,0.794-0.052,1.161,0.054c2.804,1.159,5.281,3.38,7.446,5.753c0.846,0,1.425-0.528,2.166-0.843
		c-1.691-2.798-4.539-5.86-7.706-6.918l-0.53,0.634c-2.11-1.213-4.276-2.218-6.709-2.692c-0.052,0.159,0,0.475-0.26,0.371
		c-4.176-1.32-9.56-1.374-13.781-0.159c-0.159-0.16-0.159-0.581-0.534-0.527l-3.85,2.585l-1.476-1.001l-0.215-1.851l2.114-1.635
		c0-0.636,0.052-1.265,0-1.899h-0.107l-0.048,1.792l-2.062,1.587c-0.423,0.054-0.215,0.583-0.582,0.738
		c-3.275,2.377-6.442,4.91-9.82,6.972l-0.156-0.478c-4.224,3.117-8.556,6.022-12.887,8.817c-0.363,1.481-0.363,3.062-0.786,4.489
		l-0.793-0.529c-1.165-1.163-2.166-2.323-3.223-3.54c-2.696,1.535-5.277,3.486-7.654,5.652c-0.211-0.742-0.056-1.637,0-2.481
		c0.052-1.005,0.315-1.955,0.634-2.852c1.951-0.79,3.801-1.689,5.645-2.692l0.056-1.161c4.068-2.325,8.185-4.595,12.038-7.395
		c-0.211-0.156-0.475-0.367-0.842-0.367c0,0.266-0.107,0.475-0.371,0.475c-7.606,0.953-15.208,1.954-22.069,4.7
		c-0.793,1.211-1.057,2.587-1.376,4.011c-0.682,3.646-0.367,7.814,0.479,11.3c-0.107,0.104-0.319,0.054-0.427-0.052
		c-1.212-1.478-2.162-3.171-2.956-4.858c-0.263,4.011,0.53,7.917,1.743,11.457c0.159,0.475,0.526,0.95,0.426,1.374
		c-0.163,0.156-0.426,0.104-0.582-0.056c-1.799-2.427-3.434-5.018-4.335-7.812c0.319-0.265,1.165-0.265,0.957-0.794
		c-3.011-4.066-2.537-10.4-0.897-14.939l0.208-0.16c2.01,0.107,3.857,0.688,5.919,0.423c0.048,0.105-0.163,0.315,0.1,0.367
		c0.475-0.208,0.742-0.683,1.324-0.79c1.001-3.273,3.06-6.23,5.912-8.661c4.328,0.793,9.026,0.847,13.41,1.163
		c2.485,0.526,5.333,0.159,7.814,0.211c0.686-0.106,1.005,0.582,1.269,1.003c4.965-3.113,9.92-6.388,14.73-9.924
		c0.367-0.056,0.367,0.315,0.423,0.525l0.682,2.323l0.319,0.107c-0.108,0.106,0,0.262-0.052,0.367l0.686-0.421
		c4.858,0.16,9.397-0.581,13.889-1.322c0.419,0.373,0.367,1.007,0.574,1.482c1.64,0.736,3.438,1.057,5.126,1.583l0.367,0.528
		c2.325,0.899,4.646,1.849,7.235,2.164c0.578,0.634,1.476,0.742,2.165,1.268c1.899,1.213,3.486,3.221,4.747,4.906
		c1.112,0.267,2.173,1.061,2.7,2.062c0.949,1.532,1.898,3.008,2.321,4.699c0.631,0.052,1.105-0.475,1.688-0.582
		c1.851-0.634,4.068-0.581,5.967-0.156c0.634,0.475-0.208,1.109-0.104,1.691c3.063-0.107,5.911,0.896,8.396,2.425
		c1.739-0.156,3.482-0.052,5.066,0.319c1.958,1.847,3.96,3.855,5.859,5.7c3.594,12.146,13.413,21.752,22.439,31.47l1.376,1.318
		c0,0.74-0.582,1.319-1.001,1.849c-0.905,1.531-2.647,0.369-3.961,0.475c-1.69-0.211-3.278-0.74-4.857-1.109l-0.053,0.054
		c1.425,2.852,2.745,5.754,3.694,8.817c-0.107,0.423-0.583,0.684-0.846,1.057l3.642,5.437l1.64,2.902l-0.371,1.534l4.491,8.66
		l1.791,4.114l-0.104,0.215l-0.422,0.156l-0.108,0.052l3.275,7.283l1.061,2.804l-0.111,0.156l-0.683,0.318l-0.638-0.052l3.33,7.811
		l1.261,3.434l-0.1,0.208l-0.794,0.586l-0.104,0.104l2.214,4.436l2.484,5.963l-0.215,0.586l2.536,6.067l3.223,9.346l4.751,15.738
		l1.847,8.077l0.638,3.59l4.272,2.322l0.212,0.155l0.052,0.215l-0.527,0.69l-0.211,0.104l-2.8-1.112l-2.266-0.949l-2.801-1.002
		l-5.544-2.321l-1.108-0.319l-0.582,0.268l-0.26,0.371l-4.068,2.692l-9.35,6.86l-0.207-0.052l-5.971-6.497l0.163-0.579l0.104-0.318
		v-0.104l-4.591-1.372l-11.192-3.063l-12.249-2.64l-7.235-1.269l-7.18-0.846l-3.327-0.155l-0.159-0.216l0.953-2.055l-0.056-0.318
		l-1.269-0.526l-2.321-0.897l-1.902-0.639l-0.79-0.363l-0.26-0.37l-12.097-3.643l-9.502-2.536l-2.852-0.638l-0.315,0.267h-0.267
		l-0.159-0.215l-1.157,0.318l-8.188,2.7l-4.436,1.476l-9.82,0.476l-17.579,0.267l-1.583-0.111l-0.16-0.208l0.108-0.267l1.053-1.483
		l-0.052-0.097l-8.767-0.957l-1.32-0.37l-10.502,4.124l-5.756,2.477l-1.161-0.734l-2.325-1.898l-0.742-0.741l-4.064,0.578
		l-7.499,1.32l-6.917,1.587l-7.97,2.166l-7.499,2.373l-0.319,0.053l-0.16-0.053l-0.1-0.267l-0.107-5.333l-0.107-0.423l-2.478,0.215
		l-4.543,0.734l-3.542,0.846l-2.374,3.278l-0.156,0.104l-0.267-0.053l-0.263-0.37l1.109-3.643l1.795-4.702l2.062-4.271l2.114-3.857
		l3.59-5.651l4.013-5.281L24.563,142.938z"/>
	<path fill="#1B3561" d="M49.324,77.837c1.216-1.743,2.64-3.327,4.12-4.91c-0.211-0.897-0.53-1.851-0.53-2.852
		c1.112,0.315,2.218,1.109,3.06,2.062c-0.204,0.577-1.105,0.842-0.842,1.53c1.005,0.949,1.847,2.004,2.484,3.113
		c0.686,3.008,1.795,5.859,3.427,8.5c-1.424,0.528-2.796,1.003-4.064,1.902c-0.104,0.265,0.107,0.528,0.107,0.793
		c-0.319,0.583-1.851,0.736-1.112,1.634l-1.532,1.587c0,0.736,0.107,1.637,1.009,1.686c0.523,0,0.634,0.478,0.734,0.847v0.106
		c-0.734,0.104-1.424-0.211-2.11-0.475l-2.218-0.793c-0.263-1.37-1.583-2.798-0.582-4.17c-0.208-0.58-0.156-1.32-0.475-1.849
		c-0.475,0-0.156,0.634-0.527,0.688C49.539,84.276,49.116,81.163,49.324,77.837"/>
	<path fill="#1B3561" d="M56.607,62.155c0.423,0.844,0.534,1.902,1.113,2.692l0.156-0.054c0.586-1.211,1.268-2.425,2.114-3.534
		c0.793,1.161,1.639,2.479,2.796,3.482c0.267,0.052,0.211-0.264,0.211-0.369c0.211-1.743,0.53-3.38,1.057-4.964
		c1.691,0.475,3.271,1.478,4.858,2.166c1.743,1.001,3.486,1.955,5.014,3.273c-0.842,1.37-1.898,2.746-2.848,4.174L69.443,71.5
		c-0.53-0.054-0.742-0.74-1.005-1.214c0-0.369-0.475-0.684-0.211-1.109c0.475-0.156,1.109-0.054,1.531-0.107
		c-0.315-1.001-0.897-1.951-1.531-2.794c-2.162,0.79-4.172,2.587-5.544,4.485c0.949,0.686,1.691,1.849,2.377,2.798
		c0.738,0.159,1.479,0,2.214,0c-1.372,2.431-2.692,4.858-3.798,7.341c0.208,0.156,0,0.369,0.052,0.528
		c-2.429-3.17-3.115-7.181-3.538-11.298c-0.371-0.213-0.846-0.054-1.216,0l-0.104,0.102c0.211,1.902,0.423,3.699,0.63,5.544
		c-0.419,0.107-0.052-0.527-0.208-0.74c-2.218-2.64-3.59-5.753-4.695-8.921C54.865,64.688,55.714,63.37,56.607,62.155"/>
	<path fill="#FFFFFF" d="M59.886,89.4c0.475,0.052,0.787,0.686,1.161,0.953l1.001-1.957c0.53,0.369,0.686,1.109,1.109,1.584
		l0.16-0.054l1.161-1.898c0.53,0.579,0.897,1.424,1.372,2.058h0.163c0.419-0.581,0.683-1.32,1.157-1.955l1.535,2.429h0.264
		c0.419-0.475,0.575-1.161,1.005-1.635c0.519,0.634,0.894,1.53,1.424,2.164c0.52-0.475,0.846-1.268,1.269-1.849l1.632,2.377
		c0.111,0.105,0.371,0.105,0.423-0.108l1.105-1.951c0.586,0.631,0.957,1.476,1.535,2.11c0.475-0.265,0.846,0.054,1.001,0.475
		l0.215,1.057c-0.689,0.261-1.431,0.367-2.166,0.367l-0.634,1.797c-0.367-0.16-0.686-0.683-0.901-1.055
		c-0.367-0.369-0.527-1.163-1.157-1.163l-0.793,1.322c-0.475-0.528-0.897-1.163-1.32-1.796h-0.104l-0.897,1.637
		c-0.475-0.209-0.846-0.897-1.268-1.372c0-0.106-0.104-0.265-0.211-0.319c-0.475,0.529-0.53,1.217-0.894,1.743l-1.379-1.689h-0.208
		l-0.686,1.318c-0.427-0.423-0.742-1.109-1.269-1.478c-0.475,0.369-0.475,1.055-0.79,1.535c-0.426-0.267-0.689-0.688-1.001-1.11
		c-0.957,0.949,0.682,1.687,0.949,2.586c0.419,0.154,1.053-0.213,1.316,0.262c0.052,4.327,0.16,8.872,1.48,12.833
		c-0.052,0.104-0.052,0.208-0.211,0.208c-0.16,0.052-0.367-0.423-0.475-0.104c-0.056,0.104,0.055,0.156,0,0.208
		c-0.634-0.734-1.324-1.528-1.903-2.27c-0.156-0.363-0.423-0.683-0.79-0.897l0.263,0.638l-0.056,0.052
		c-3.167-3.906-4.484-8.661-5.437-13.515C58.462,91.669,59.304,90.614,59.886,89.4"/>
	<path fill="#1B3561" d="M63.42,82.747l1.108,0.634l0.319,1.424l-0.742,1.001c-0.367,0.108-0.738-0.261-1.105-0.475
		c-0.163-0.577-0.375-1.157-0.423-1.791L63.42,82.747z"/>
	<polygon fill="#FFFFFF" points="63.951,106.98 63.739,106.824 63.739,106.713 	"/>
	<path fill="#CDB87C" d="M77.783,45.419l0.052-0.16l-0.742-1.899c2.589-1.003,5.125-2.116,7.554-3.432
		c2.637,1.902,5.226,3.907,7.603,6.23v0.156l-5.759,2.431c-0.259,0-0.208-0.319-0.312-0.528c-1.112-1.001-2.114-1.954-3.33-2.744
		c-0.527,0.211-1.001,0.526-1.476,0.896c0.63,0.688,1.32,1.109,1.951,1.689v0.16c-0.838,0.634-1.795,0.897-2.692,1.424
		c0.267,0.422,0.846,0.634,1.216,0.953v0.156l-6.757,2.692c-0.163,0-0.475,0.108-0.526-0.156c-0.111-0.793-0.371-1.428-0.215-2.221
		c1.32-0.896,2.692-1.739,4.013-2.794l-0.371,0.05c-1.157,0.686-2.425,1.214-3.746,1.689c-0.422-0.05-0.319-0.63-0.422-1.003
		c0.052-0.527-0.156-0.95-0.208-1.424L77.783,45.419z"/>
	<path fill="#CDB87C" d="M76.567,53.232c2.273-0.369,4.539-0.74,6.705-1.428c3.538,1.902,6.92,4.33,9.924,7.182l1.009-0.79
		c-2.322-2.692-5.177-4.75-7.921-6.653c0.052-0.209,0.052-0.583,0.371-0.634c3.59-1.109,7.072-2.427,10.399-4.224h0.159
		c1.161,1.269,2.377,2.377,3.275,3.696c-0.793,1.163-2.166,2.112-3.275,3.011c3.275,3.536,6.234,7.337,8.504,11.298l-0.371,1.001
		h-0.156c-0.957-1.001-1.798-2.058-2.907-2.852c-0.104,0-0.267,0.108-0.215,0.267c2.01,2.271,3.909,4.697,5.44,7.178
		c8.871-1.159,18.583-0.63,26.928,1.272c0.052,0.631-0.104,1.265-0.212,1.899c-2.214-0.267-4.49-0.634-6.809-0.688
		c-0.107,0.475,0,1.109,0,1.583c-0.374,0.213-0.897,0-1.269,0.054c-4.539-0.156-8.974,0.16-13.198,0.95
		c-0.267,0.688-0.156,1.481-0.211,2.221c-3.853,1.211-7.603,2.587-11.144,4.538c-2.106-4.222-4.487-8.502-8.129-12.144
		c-0.312-0.108-0.579,0.211-0.846,0.265l0.052,0.369c1.008,1.424,1.958,2.906,2.692,4.382c-0.104,0.213-0.367,0.582-0.687,0.475
		c-0.419-0.736-1.105-1.476-1.739-2.11c-0.319,0-0.578,0.211-0.845,0.371c1.847,3.696,3.223,7.547,4.228,11.56
		c-1.799,1.216-3.597,2.537-5.285,4.12c-2.006-1.32-4.172-2.377-6.334-3.432c-0.056-0.262,0.367-0.315,0.582-0.475
		c1.476-0.529,2.956-1.055,4.436-1.743c-2.8-1.583-5.759-2.798-8.715-3.961l-0.104-0.209c2.429-1.055,4.962-2.004,7.443-3.011
		l-0.104-0.159c-2.006-1.157-4.068-2.214-6.23-3.114v-0.209l4.009-1.956c0.793-0.475-0.156-1.161-0.26-1.795l-0.793-1.318
		l0.63-0.684c-3.004-4.28-7.335-7.712-11.823-9.77C74.512,56.031,75.618,54.657,76.567,53.232"/>
	<path fill="#FFFFFF" d="M76.782,122.712c2.9,3.701,6.705,7.023,10.558,9.612c-0.582,1.216-1.479,2.425-1.902,3.693
		c-0.734,0.156-1.372,0.638-2.166,0.846c-0.683,0.052-1.795,0.846-2.27-0.208C78.414,132.531,76.726,127.94,76.782,122.712"/>
	<path fill="#1B3561" d="M80.527,139.504l0.95,0.215l1.009-0.526c0.894,0.949,1.787,1.839,2.581,2.789
		c1.324,0,2.537-0.364,3.753-0.52l0.419,0.52c2.904,0.904,6.39,0.853,9.346,0.163c0.056-0.053,0.107-0.268,0.211-0.163
		c0.163,0.267,0.319,0.689,0.582,0.853c3.115-0.897,6.175-2.062,8.552-4.547c-0.16-0.475-0.894-0.312-1.213-0.786
		c0.738-0.957,1.532-1.95,2.322-2.804c0.371,0.06,0.526,0.475,0.846,0.638l1.743-2.536c-0.163-0.26-0.582-0.319-0.845-0.638
		l2.588-4.221c0.367,0.052,0.63,0.371,0.842,0.579c0.479-0.891,1.269-1.743,1.587-2.745c-0.267-0.207-0.686-0.267-1.005-0.475
		c1.161-1.95,2.062-3.96,3.115-5.963c0.423-0.052,0.897,0.897,1.165,0.052l1.053-2.321c-0.211-0.163-0.579-0.319-0.897-0.423
		c0.579-1.587,1.372-3.167,2.01-4.755c0.419,0.104,0.63,0.631,0.845,0.69c2.003-4.332,3.69-8.768,5.325-13.201
		c1.795,0.579,3.435,1.631,5.073,2.749c0.208-0.108,0.475-0.108,0.527-0.375c-0.163-0.687,0-1.269-0.163-1.951
		c2.433,1.424,4.49,3.329,6.601,5.331c0.482-0.37,0.949-0.741,1.64-0.689c0.37,0.111,0.423,0.586,0.793,0.689
		c0.742,0.216,0.794-0.741,1.528-0.526l0.475,0.052c2.218,3.435,3.382,7.336,4.068,11.349c-1.109-1.105-2.162-2.529-3.119-3.901
		l-1.105,0.63l-12.724,8.5c-0.159,0.052-0.367-0.052-0.419-0.26l0.312-0.163c0.526-0.846,1.001-1.69,1.531-2.588
		c0.108,0.111,0.367,0.163,0.42,0c1.112-3.115,1.854-6.387,1.905-9.925l-0.526-0.475c-0.638,1.217-1.061,2.589-1.69,3.806
		c-1.691,3.479-3.857,6.705-6.387,9.761c0,0.318,0.312,0.318,0.526,0.475c-0.638,2.692-1.531,5.333-2.907,7.766
		c-0.367,0.949-1.58,1.795-1.161,2.907l2.325,3.056c-0.319,0.052-0.475,0.475-0.845,0.268c-0.846-0.742-1.48-1.743-2.218-2.434
		l-0.211,0.216c-0.211,2.899-0.849,5.6-1.743,8.181c-7.02,5.541-14.678,9.664-23.601,10.777c-1.264,0.155-2.64,0.155-3.909,0
		l-12.301-12.461C80.105,139.875,80.32,139.607,80.527,139.504"/>
	<path fill="#FFFFFF" d="M83.116,92.407c2.477-0.105,4.858,0.373,6.386,2.271c-0.63,5.228-0.578,11.033,0.319,16.099
		c-0.897-0.63-1.795-1.632-2.585-2.478c-0.794-0.949-1.48-2.002-2.222-3.011c-0.104,0-0.259,0.163-0.259,0.267
		c0.104-0.215,0.104-0.475-0.056-0.741c-2.006-3.48-3.275-7.334-3.801-11.404C81.477,92.674,82.322,92.569,83.116,92.407"/>
	<path fill="#1B3561" d="M84.54,105.875l0.742,2.27c-1.165,3.219-1.695,7.966,0.683,10.821c0.267,0.156,0.319-0.163,0.371-0.371
		c0.267-1.476,1.161-2.899,2.273-3.849c0.63-0.371,1.057,0.312,1.635,0.312c3.375,0.422,5.648-2.271,8.923-2.322
		c1.847-0.155,3.642,0.104,5.066,1.217c0.53-1.165,0.586-2.589,0.742-3.909c0.163-1.847,0.163-3.96-0.156-5.755
		c0.363-0.787,1.161-1.373,2.002-1.373c1.109,2.011,1.532,4.332,1.743,6.758l-0.104,0.845l-8.077,13.307
		c0.527,1.476,1.269,2.848,2.006,4.228l0.523,0.949l-0.312-0.111c-3.909-4.064-7.239-8.5-9.189-13.514
		c-0.156-0.267-0.319,0.052-0.527,0.052c-1.268,1.535-1.483,3.538-2.114,5.385c-0.738,3.642-0.583,7.603,0.267,11.089
		c-0.319,0-0.056-0.423-0.319-0.579c-0.687-1.053-1.105-2.217-1.58-3.382c-0.163-0.267-0.375-0.318-0.638-0.423
		c-1.053-0.683-2.218-1.216-3.063-2.158c-1.528-2.804-2.588-5.814-3.59-8.818C82.056,112.684,82.905,109.146,84.54,105.875"/>
	<path fill="#FFFFFF" d="M92.988,120.071c0.267,0.06,0.475,0.318,0.526,0.534c1.743,4.435,5.333,8.552,9.19,11.399
		c0.156,0,0.263-0.207,0.419-0.104c0,1.483-0.949,2.692-2.162,3.59c-1.688,1.164-4.328,1.639-6.282,0.526
		c0.052-0.208,0.367-0.155,0.475-0.371C93.04,131.056,91.879,125.463,92.988,120.071"/>
	<path fill="#1B3561" d="M106.45,99.591c0.111,0.211,0.371,0.894-0.104,0.949c-0.682,0.159-1.372,0.212-1.902,0.738
		c-0.1-0.264-0.315-0.687,0.056-0.897C105.137,100.065,105.712,99.643,106.45,99.591"/>
	<path fill="#CDB87C" d="M106.083,49.114c1.216,0.425,2.533,0.475,3.749,0.896c0.371,0.265-0.052,0.425-0.159,0.584l-4.064,3.062
		l-0.16-0.213l0.315-4.116L106.083,49.114z"/>
	<path fill="#1B3561" d="M109.884,118.647c0.422-0.156,0.526,0.37,0.897,0.267c0.897-1.372,1.691-2.849,2.27-4.332
		c0.579-0.155,0.949,0.371,1.428,0.527c2.006-3.538,3.749-7.231,5.492-10.821c0.312-0.053,0.897-0.156,0.842,0.318
		c-2.956,8.396-6.286,16.629-11.144,24.231c-0.419-0.155-0.894-0.526-1.161-0.897c0.479-0.949,1.061-1.898,1.643-2.907
		c0.104,0,0.259-0.208,0.311-0.312l-0.052-0.104l-0.104,0.155c-0.052-0.423,0.579-0.371,0.367-0.794l1.48-2.744
		c0.208-0.052,0.423,0.215,0.582,0.371c0.79-0.897,1.161-2.01,1.688-3.063c-0.312-0.26-0.527-0.683-1.001-0.638l-0.267,0.163
		c-0.363,0.794-0.793,1.64-1.368,2.374c-0.475-0.104-0.738-0.683-1.213-0.631c-0.849,1.691-1.743,3.434-2.804,5.065
		c-0.363-0.104-0.738-0.423-1.053-0.682L109.884,118.647z"/>
	<path fill="#CDB87C" d="M111.627,48.797c1.899,1.956,4.168,2.958,6.809,3.065l0.159,2.954c-3.274-0.105-6.916-1.637-8.133-5.012
		C110.674,49.326,111.256,49.112,111.627,48.797"/>
	<path fill="#FFFFFF" d="M112.154,103.969c1.424,1.061,2.956,1.854,4.699,2.062c-0.419,1.848-1.636,3.486-2.904,4.962
		c-0.371,0.371-0.95,0.423-1.372,0.26C111.416,109.197,111.523,106.298,112.154,103.969"/>
	<path fill="#FFFFFF" d="M117.486,97.533c1.636,0.63,3.434,1.372,5.385,0.949c-0.897,1.899-2.425,3.538-4.012,5.124l-0.319-0.06
		c-0.786-1.793-1.157-3.795-1.157-5.961L117.486,97.533z"/>
	<path fill="#1B3561" d="M127.358,22.396c4.12-0.844,8.185,0.319,11.615,2.008c0.375,0.79,0.742,1.583,1.009,2.322l-3.49-0.263
		c-2.903-1.53-5.907-2.745-9.394-2.954L127.358,22.396z"/>
	<path fill="#1B3561" d="M145.522,27.52c-0.422,0.213-0.897,0.423-1.428,0.423C144.573,27.787,145.048,27.573,145.522,27.52"/>
	<path fill="#CDB87C" d="M150.433,51.172c1.848,1.637,3.909,3.221,5.545,4.964c-0.107,0.262-0.583,0.421-0.479,0.688
		c3.538,1.845,6.868,4.222,10.087,6.759h0.319c3.849,4.222,6.649,8.867,8.552,13.938c0,0.105,0.104,0.367-0.104,0.367
		c0.794,5.385,0.475,11.404-1.587,16.106c-0.104,0.106-0.211,0.106-0.312,0.106c-0.215-3.54-0.957-6.867-2.065-10.085
		c-0.683-0.213-1.477-0.054-2.214,0c0.104,0.686,0.423,1.37,0.578,2.058c-1.372,0.16-2.692,0.265-3.905,0.846
		c-1.851-7.393-4.91-14.31-8.923-20.803c0.315-0.213,0.738-0.213,1.109-0.265c3.642,3.751,6.653,7.976,8.818,12.461
		c0.312,0.105,0.786,0.159,1.105,0.052c-3.749-10.558-12.668-19.903-22.069-26.768C146.58,50.911,148.586,50.857,150.433,51.172"/>
	<path fill="#1B3561" d="M150.329,28.417c3.167-0.315,5.808,1.476,7.603,4.013c0.052,0.107,0.267,0.107,0.211,0.263l-0.211,0.052
		c-2.325-0.95-4.754-1.743-7.184-2.426c-1.265-1.003-2.11-2.484-3.326-3.593C148.798,25.777,149.38,27.787,150.329,28.417"/>
	<path fill="#CDB87C" d="M148.69,125.248c2.907-1.847,5.703-4.013,8.24-6.549c0.526,0.689,0.734,1.639,1.104,2.433
		c-2.321,2.796-4.962,5.281-7.813,7.388c-0.634-0.95-1.005-2.106-1.531-3.168V125.248z"/>
	<path fill="#1B3561" d="M152.914,39.398c3.326,0.423,6.39,1.745,9.394,3.065l0.111-0.052l-0.578-3.962
		c-0.427-0.265-1.058-0.211-1.477-0.634c-0.586-0.896,0.045-2.639-1.432-2.852c-0.155-0.475-0.315-0.949-0.315-1.476
		c2.641-1.109,6.282-1.109,9.03-0.213c0.208,0.475-0.11,1.322,0.527,1.481c5.651-0.107,10.347,2.533,14.359,6.28
		c0.318,1.269,0.741,2.481,1.057,3.696l-0.264-0.054c-4.91-3.748-10.031-7.284-16.317-7.549c-0.526,0.105-1.104-0.054-1.527,0.265
		l1.268,3.221c6.49,1.424,12.405,5.279,16.896,10.823c1.161,1.53,1.95,3.221,2.373,5.07c0.423,0.102,0.794-0.848,1.32-0.373
		c4.592,5.283,10.243,8.925,16.259,11.248c0.475,0.475,1.168,0.95,1.375,1.583c-0.793,0.108,0.16,0.742-0.419,1.109
		c-7.554-1.795-14.255-5.596-20.434-10.614l-0.53,0.054l-5.285,2.483c-0.786-0.74-1.476-1.849-2.21-2.692
		c-1.376-0.793-2.8-1.639-4.176-2.537l-0.423,0.054l-1.32-2.271l0.371-0.421c-1.743-3.221-3.693-6.388-5.859-9.453
		c-0.631-0.048-1.157,0.634-1.795,0.742l-0.267-1.265l-0.95-0.638c-2.848-1.265-5.703-2.586-8.814-3.376
		C152.755,39.926,152.914,39.665,152.914,39.398"/>
	<path fill="#CDB87C" d="M181.955,139.029c3.746,0.475,7.287,1.372,10.874,2.165c0.163,0.527,0.107,1.157,0,1.691
		c-4.229,0-8.337,0.26-12.306,0.897c-0.312-1.216-0.475-2.484-0.949-3.649L181.955,139.029z"/>
	<path fill="#CDB87C" d="M186.494,134.86c3.698,0.527,7.34,1.372,10.981,2.218c0.846-0.215,1.799-0.215,2.637-0.526
		c-0.101-0.319-0.312-0.689-0.045-1.009l3.056-1.743c0.164-1.527,0.056-3.271,0-4.851l1.644-0.534c0-0.63-0.319-1.269-0.375-1.95
		c0.212-0.111,0.53-0.052,0.742,0c-1.061-4.644-2.485-9.242-4.172-13.625l0.107-0.156l2.64,0.268
		c1.688,3.479,3.063,7.18,4.324,10.873c-0.104,0.267-0.578,0.052-0.734,0.371l3.271,7.654c-0.371,0.475-1.372,0.741-1.054,1.476
		c1.265,2.433,2.322,4.91,3.427,7.395c-0.475,0.527-1.157,0.95-1.743,1.477l-0.419-0.156c-1.479-1.164-2.955-2.27-4.535-3.33
		c-1.958,0.423-3.701,1.217-5.548,1.795c-4.013-1.105-8.081-1.95-12.249-2.685l-2.007-2.804L186.494,134.86z"/>
	<path fill="#1B3561" d="M190.3,68.228c1.579,1.001,3.167,2.11,4.591,3.327c-0.156,0.367-0.586-0.213-0.742,0.208
		c0.794,1.749,1.64,3.488,2.374,5.283c-0.312,0.107-0.838,0.054-1.157,0V76.57l-1.847-3.642c-1.424-1.322-2.96-2.643-4.487-3.805
		C189.295,68.754,189.825,68.439,190.3,68.228"/>
	<path fill="#1B3561" d="M15.628,165.048l8.181-0.831c0,0.371,0,0.957-0.419,1.002l-7.977,0.571
		C14.995,165.679,15.31,165.1,15.628,165.048"/>
	<path fill="#1B3561" d="M25.182,166.442l11.463-2.41l13.681-2.292l7.391-0.979c1.053,0.891,2.266,1.64,3.378,2.381
		c6.334-2.099,12.52-4.517,19.018-6.186c0.159,0.208-0.267,0.786,0.259,0.89c3.486,0.379,7.128,0.23,10.614,0.289
		c-0.319,1.054-0.849,2.055-1.275,3.168c1.112,0.155,2.381,0.163,3.538,0.11l16.051,0.09l7.235-0.245l8.989-5.162l0.738,0.534
		c0.371-0.475,1.001-0.786,1.528-1.105c1.958,0.794,3.856,1.906,5.859,2.604l0.634-0.794c5.434,2.174,10.974,4.035,16.726,5.526
		c4.698,0.853,9.342,1.713,14.145,2.358c-0.212,0.578-0.427,1.209-0.846,1.632l0.419,1.424l0.101,0.111
		c5.439,1.12,10.506,3.189,15.938,4.361l0.156-0.052l0.797-1.691c8.396,0.186,15.888,2.678,23.753,4.279l1.844,0.534l0.259,2.581
		c1.425,1.854,2.793,3.761,4.373,5.556l0.367-0.052c4.231-2.418,8.618-4.361,12.846-6.676h0.104l0.052,0.846l-1.005,0.578
		l-12.368,6.416c-0.689-0.423-1.105-1.217-1.58-1.854l-3.159-4.383l-0.26-2.114c-8.069-1.921-16.414-3.264-24.91-4.279l-0.901,1.268
		c-5.8-1.653-11.607-3.3-17.415-4.902c-0.208-0.371,0.319-0.578,0.427-0.846c-0.049-0.363,0.004-0.793-0.315-1.053
		c-0.052-0.104,0.052-0.215,0-0.312c-10.184-1.929-20.264-4.272-29.761-7.885l-0.475,0.371c-2.11-0.689-4.165-1.543-6.227-2.447
		c-0.687,0.215-1.269,1.112-2.01,0.682c-3.167,1.632-6.186,3.583-9.405,5.052l-26.872-0.274c-0.108,0.052-0.267,0.267-0.427,0.052
		l-0.048-0.208l1.165-3.115c-3.375-0.215-6.913-0.223-10.347-0.393c-0.156-0.104-0.156-0.268-0.156-0.423l-0.582,0.104
		c-6.026,1.943-12.101,3.99-18.02,6.245l-0.371-0.104l-3.479-2.7l-15.313,2.5c-5.915,1.046-11.834,2.188-17.642,3.441
		c-0.267-0.052-0.111-0.415-0.163-0.631L25.182,166.442z"/>
	<path fill="#1B3561" d="M31.894,139.207c0.267-0.208,0.527-0.526,0.846-0.631l0.052,0.156l-1.179,7.023
		c-0.208,0.104-0.475,0.527-0.79,0.208L31.894,139.207z"/>
	<path fill="#1B3561" d="M45.542,127.518c-0.267,0.949,0.312,2.589-1.113,2.692l-0.163-0.06
		C44.533,129.201,44.221,127.674,45.542,127.518"/>
	<path fill="#1B3561" d="M49.027,77.948c1.216-1.631,2.596-3.269,4.131-4.795c-0.263-0.896-0.526-1.851-0.575-2.852
		c0.315-0.159,0.686,0.106,1.005,0.213l0.675,2.483c-1.32,1.686-3.063,3.213-4.179,4.957c-0.007,2.794,0.308,5.438,0.671,8.077
		c0.156-0.106,0.319-0.315,0.527-0.315c0.367,0.848,0.363,1.849,0.63,2.746l-0.479,0.74l1.102,3.065
		c1.105,0.58,2.266,0.899,3.427,1.324c0.107,0.213,0.208,0.427,0.104,0.634c-0.631,0.209-1.265-0.16-1.847-0.319l-2.581-0.957
		c-0.423-1.374-1.684-2.907-0.679-4.385c-0.156-0.475-0.156-1.051-0.367-1.583c-0.211,0.213-0.104,0.74-0.53,0.688
		c-0.575-1.637-0.782-3.486-1.042-5.283C48.968,80.961,48.864,79.426,49.027,77.948"/>
	<path fill="#1B3561" d="M52.421,120.405c0.419,0.267,0.842,0.586,1.157,0.949c-0.156,0.37-0.582,0.475-0.894,0.689
		c-0.423-0.475-1.216-0.794-1.48-1.372L52.421,120.405z"/>
	<path fill="#1B3561" d="M56.456,62.231c0.315,0.105,0.315,0.526,0.367,0.845l-1.802,2.845c0.946,3.278,2.366,6.343,4.153,9.199
		c-0.215,0.421,0.423,0.794-0.059,1.055c-0.156,0-0.312-0.211-0.364-0.315l0.104-0.371c-2.27-2.75-3.63-5.873-4.732-9.145
		C54.602,64.866,55.451,63.496,56.456,62.231"/>
	<path fill="#1B3561" d="M55.814,89.789c0.208,0.213-0.104,0.373-0.267,0.475l-1.216,1.105c-0.104,0-0.156-0.052-0.208-0.156
		C54.542,90.633,55.18,90.104,55.814,89.789"/>
	<path fill="#1B3561" d="M56.823,88.05c0.263,0.054,0.26,0.369,0,0.475l-0.949,0.631c-0.164,0.054-0.319-0.106-0.267-0.315
		L56.823,88.05z"/>
	<path fill="#1B3561" d="M58.41,85.994c0.734-0.312,1.428-0.732,2.217-0.946c0.16,0.213,0.423,0.425,0.26,0.634
		c-1.368,0.475-2.744,1.051-4.064,1.789c-0.16,0.048-0.26-0.213-0.156-0.373L58.41,85.994z"/>
	<path fill="#1B3561" d="M59.834,61.341c0.371,0.052,0.319,0.475,0.371,0.74l-2.385,3.164c-0.104,0.102-0.156-0.054-0.211-0.16
		C58.143,63.767,58.937,62.499,59.834,61.341"/>
	<path fill="#1B3561" d="M59.664,69.472l0.949-0.054c0.26,1.428,0.416,2.855,0.623,4.28c0.575,2.431,1.15,4.914,2.358,7.131
		c-0.315,0.319,0.108,0.847-0.267,1.057c-1.524-1.691-2.155-3.805-2.785-5.917c-0.367-1.747-0.623-3.595-0.834-5.442
		c-0.312-0.265-0.793,0.156-1.001-0.211C58.974,70,59.133,69.367,59.664,69.472"/>
	<path fill="#1B3561" d="M60.613,117.571c0.419,0.216,0.786,0.69,0.89,1.113c-0.26,0.207-0.579,0.422-0.949,0.312l-0.683-0.787
		C60.031,117.942,60.346,117.787,60.613,117.571"/>
	<path fill="#1B3561" d="M62.337,52.634c-0.056-0.367-0.53-0.265-0.686-0.581c0.056-0.265,0.319-0.475,0.475-0.74
		c0.534,0.004,0.897,0.532,1.32,0.846l-0.052,0.321l-1.587,2.527l0.623,2.116c-0.104,0.636-0.211,1.318-0.53,1.847
		c-0.475-0.107-0.156-0.742-0.475-1.003c-0.156-1.055-0.994-2.221-0.256-3.272L62.337,52.634z"/>
	<path fill="#1B3561" d="M62.779,114.99c0.475,0.052,0.686,0.526,0.949,0.794c-0.156,0.312-0.579,0.475-0.949,0.475
		C62.408,115.939,62.041,115.198,62.779,114.99"/>
	<path fill="#1B3561" d="M63.798,59.607c0.375-0.159,0.794,0.16,1.109,0.319c-0.586,1.583-1.272,3.113-1.75,4.697
		c-0.052,0.104-0.159,0.21-0.319,0.156l-0.104-0.159C62.897,62.876,63.272,61.191,63.798,59.607"/>
	<path fill="#1B3561" d="M63.098,41.972c0.215-0.267,0.534-0.634,0.901-0.579c0.1,1.739-0.059,3.376,0.097,5.014
		c-0.267,0.265-0.634,0.475-1.005,0.367C62.882,45.245,62.942,43.607,63.098,41.972"/>
	<path fill="#1B3561" d="M63.335,54.432c0.897,0.479,1.632,1.218,2.321,1.958c-0.059,0.422-0.104,0.79-0.319,1.108
		c-0.949-0.638-1.476-1.587-2.425-2.225C62.964,54.959,63.127,54.64,63.335,54.432"/>
	<path fill="#1B3561" d="M68.59,65.955c0.634,0.265,0.897,0.953,1.213,1.428l0.734,1.428c-0.156,0.421-0.686,0.315-1.053,0.364
		c-0.475-0.79-0.845-1.689-1.424-2.429c-0.846,0.159-1.639,0.736-2.377,1.211l-1.161,0.945l-0.163-0.105
		C65.579,67.427,67.058,66.478,68.59,65.955"/>
	<path fill="#1B3561" d="M66.479,41.766h0.208c1.053,2.275,2.37,4.445,3.738,6.609c0.052,0.369-0.371,0.421-0.634,0.58h-0.16
		c-1.476-2.114-2.633-4.335-3.63-6.66C65.897,41.976,66.32,41.927,66.479,41.766"/>
	<path fill="#1B3561" d="M66.502,54.651c0.69,0.371,1.32,0.953,1.899,1.587l2.737,3.596c0.156,0.478,0.156,1.003,0.367,1.374
		l2.748-1.153c2.373,1.059,4.428,3.073,6.378,5.081l2.478,0.478c0.215,0.111,0.215,0.373,0.163,0.532
		c-0.794-0.159-1.639-0.109-2.485-0.061l-0.949-0.211c-1.847-1.908-3.901-3.547-6.06-4.873c-1.061,0.16-2.062,0.63-3.123,0.838
		c-0.475,0.054-0.415-0.581-0.519-0.896l0.052-0.105c-1.053-1.902-2.473-3.757-4.161-5.344
		C66.079,55.178,66.19,54.807,66.502,54.651"/>
	<path fill="#1B3561" d="M67.192,79.203c0.208-0.054,0.259,0.16,0.259,0.315c0.104,1.689,0.208,3.384,0.623,4.914l0.211,0.16
		c3.646-0.204,6.649,1.068,9.713,2.344l-0.008,1.055l3.063,1.064c0.156,0.261,0,0.526-0.104,0.736l-0.215,0.106
		c-1.269-0.371-2.589-0.69-3.957-0.96c0.052-0.523,0-1.052,0.107-1.632c-2.904-0.905-5.963-1.339-9.079-1.604
		c-0.211,0.102-0.475,0.365-0.793,0.209l-0.26-0.479c-0.156-1.583-0.519-3.115-0.356-4.75L67.192,79.203z"/>
	<path fill="#1B3561" d="M67.151,48.158c1.213-0.048,0.579,1.428,0.842,2.058c-0.056,0.373-0.423,0.267-0.686,0.319
		c-0.371-0.686-0.419-1.534-0.471-2.327L67.151,48.158z"/>
	<path fill="#1B3561" d="M68.215,69.281c1.161-0.369,1.053,1.161,1.632,1.743c-0.108,0.371-0.264,0.686-0.527,0.949
		c-0.742-0.107-0.949-0.949-1.268-1.535C68,70.123,67.578,69.383,68.215,69.281"/>
	<path fill="#1B3561" d="M69.157,72.344c1.057-0.528,1.424,0.584,2.055,1.113c-0.156,0.421-0.683,0.526-1.053,0.682
		C69.576,73.715,69.105,73.081,69.157,72.344"/>
	<path fill="#1B3561" d="M69.398,35.439c0.056-0.105,0.156-0.054,0.211-0.054l0.63,1.587c0.256,3.695,0.931,7.182,2.036,10.508
		c-0.055,0.319-0.003,0.794-0.426,0.794l-0.263-0.16C70.114,44.204,69.124,39.977,69.398,35.439"/>
	<path fill="#1B3561" d="M74.905,99.016l0.215,0.056l1.684,3.067c-0.593,2.69-0.545,5.806-0.549,8.609
		c-0.371,0.26-0.793,0.415-1.216,0.415c-0.416-2.855-0.097-5.703,0.386-8.446c-0.631-0.741-0.89-1.743-1.313-2.588
		C74.164,99.654,74.586,99.391,74.905,99.016"/>
	<path fill="#1B3561" d="M80.257,139.682l0.63,0.111c4.113,3.864,8.063,7.995,12.116,11.904c9.879-0.082,18.387-3.709,26.052-9.338
		c0.16,0,0.211,0.155,0.16,0.267c-7.247,5.63-15.124,9.783-24.413,10.451l-2.537-0.008l-3.004-2.907l-9.483-9.687
		C79.727,140.156,79.99,139.845,80.257,139.682"/>
	<path fill="#1B3561" d="M81.087,49.456c0.475,0.211,0.95,0.58,1.316,1.005c-0.156,0.209-0.475,0.634-0.845,0.423
		C81.136,50.564,79.452,49.717,81.087,49.456"/>
	<path fill="#1B3561" d="M80.813,79.075c2.325-1.053,4.699-1.839,7.131-2.521c0.16,0.056,0.267,0.109,0.367,0.215v0.104
		c-2.429,1.051-4.862,1.997-7.291,2.889C80.702,79.709,80.81,79.287,80.813,79.075"/>
	<path fill="#1B3561" d="M81.94,46.023c0.738,0.48,1.48,1.166,2.055,1.8c-0.16,0.319-0.53,0.688-0.901,0.579l-1.947-1.641
		C81.147,46.338,81.677,46.236,81.94,46.023"/>
	<path fill="#1B3561" d="M81.584,87.523c5.381,2.177,10.443,5.146,15.346,8.377l2.118-0.892l1.899,1.115l3.271-0.788l0.052,0.159
		l-3.697,1.682l-2.318-1.061l-1.217,0.312c-5.118-3.022-10.391-5.726-15.879-7.901C81.217,88.158,81.269,87.733,81.584,87.523"/>
	<path fill="#1B3561" d="M81.933,72.793c1.324-0.79,2.748-1.42,4.228-1.891c0.211,0.267-0.156,0.423-0.211,0.582l-3.968,1.838
		C81.826,73.216,81.933,72.949,81.933,72.793"/>
	<path fill="#1B3561" d="M84.091,51.573c2.429,0.955,4.536,2.759,6.642,4.398c1.001,0.897,2.055,1.854,2.9,2.855
		c0,0.267-0.319,0.423-0.53,0.529l-0.315-0.106c-2.896-2.807-6.112-5.188-9.49-6.938C83.035,51.836,83.776,51.836,84.091,51.573"/>
	<path fill="#1B3561" d="M85.386,39.643c2.637,1.589,5.166,3.974,7.328,6.301c0.052,0.369-0.375,0.369-0.53,0.529
		c-1.213-1.059-2.426-2.066-3.638-3.125l-3.953-3.069C84.7,39.906,85.067,39.804,85.386,39.643"/>
	<path fill="#1B3561" d="M84.863,85.367c1.213-0.471,2.437-0.732,3.697-0.996l0.052,0.16l-3.594,1.417
		C84.755,86.001,84.814,85.526,84.863,85.367"/>
	<path fill="#1B3561" d="M92.009,30.208l0.104,0.159l-0.801,4.538c-0.267,0.105-0.638,0.58-0.953,0.209l0.693-4.33L92.009,30.208z"
		/>
	<path fill="#1B3561" d="M92.651,73.557c2.103,3.49,3.519,7.294,4.621,11.202c0,0.478-0.634,0.475-1.005,0.736l-0.208-0.052
		c-1.105-3.909-2.414-7.766-4.257-11.411C92.017,73.818,92.335,73.663,92.651,73.557"/>
	<path fill="#1B3561" d="M92.84,35.595c1.528,1.007,2.477,2.696,3.475,4.128c0.108,0.102-0.055,0.102-0.104,0.156
		c-1.424-1.113-2.848-2.594-4.272-3.707C92.098,35.856,92.521,35.75,92.84,35.595"/>
	<path fill="#1B3561" d="M92.973,70.179l0.264,0.054c1.212,1.428,1.947,3.011,2.74,4.599c-0.056,0.369-0.534,0.369-0.793,0.421
		c-1.005-1.48-1.843-3.067-2.896-4.599C92.343,70.282,92.762,70.388,92.973,70.179"/>
	<path fill="#1B3561" d="M95.799,34.176h0.267c2.158,1.96,3.686,4.178,4.999,6.399c0.052,0.421-0.423,0.475-0.69,0.581
		c-1.053-1.112-1.839-2.537-2.841-3.809c-0.738-0.846-1.58-1.795-2.425-2.541C95.161,34.492,95.536,34.332,95.799,34.176"/>
	<path fill="#1B3561" d="M97.661,53.027l0.208,0.054c3.427,3.601,6.267,7.406,8.366,11.53c0,0.319-0.312,0.528-0.475,0.736
		c-0.475,0.107-0.156-0.475-0.419-0.634c-2.366-3.805-5.107-7.506-8.422-10.948C97.023,53.396,97.394,53.294,97.661,53.027"/>
	<path fill="#1B3561" d="M97.991,46.537l0.527,0.371l0.53-0.425c1.795,0.109,3.586,0.011,5.229-0.25
		c4.176-2.631,8.248-5.472,12-9.11c0-0.315-0.686-0.581-0.311-0.95c3.119-2.946,5.926-6.11,8.203-9.433
		c0.104-0.104,0.315-0.05,0.315,0.052l0.211,0.319c-2.173,3.427-4.977,6.746-8.203,9.54c0.048,0.315,0.527,0.421,0.467,0.847
		c-4.228,3.896-8.619,7.371-13.429,9.944c-0.263,0.054-0.156-0.265-0.263-0.421c-1.528,0.156-3.011,0.152-4.539-0.011l-0.052,0.105
		c0.787,1.059,1.843,2.062,2.418,3.175c0,0.315-0.422,0.369-0.63,0.475l-0.211-0.056c-0.949-1.216-2.106-2.431-3.163-3.651
		C97.142,46.639,97.672,46.692,97.991,46.537"/>
	<path fill="#1B3561" d="M99.374,41.734c0.475,0.16,0.95,0.532,1.053,0.953c-0.319,0.156-0.638,0.525-1.001,0.312
		c-0.215-0.315-0.794-0.367-0.53-0.896L99.374,41.734z"/>
	<path fill="#1B3561" d="M102.022,63.018l0.419,0.159l2.637,2.645l0.259-0.264c1.001,1.269,1.951,2.645,2.737,3.965
		c8.982-1.458,18.428-0.171,26.928,1.593c0.208,0.373-0.004,0.899-0.056,1.322c-0.156,0.211-0.319,0.102-0.53,0.102
		c-0.319-0.054-0.052-0.369-0.156-0.528c-8.34-2.077-18.108-2.415-26.979-1.326c-1.58-2.537-3.419-4.972-5.474-7.245
		C101.807,63.231,101.911,63.067,102.022,63.018"/>
	<path fill="#1B3561" d="M104.114,94.225c1.743-1.104,3.649-1.836,5.604-2.52c0.79,0.213,1.368,1.059,2.006,1.587
		c-0.215,0.315-0.742,0.261-1.113,0.421l-1.476-0.793c-1.639,0.524-3.223,1.098-4.81,1.728
		C104.169,94.594,104.062,94.386,104.114,94.225"/>
	<path fill="#1B3561" d="M106.854,48.666c1.161,0.213,2.373,0.378,3.434,0.853c-0.111,0.371-0.219,0.793-0.479,1.001
		c-1.057-0.581-2.485-0.532-3.642-0.957C105.901,49.244,106.435,48.56,106.854,48.666"/>
	<path fill="#1B3561" d="M108.727,134.891c0.156,0,0.363-0.053,0.419,0.163c-0.375,0.734-0.901,1.424-1.431,2.106
		c0.263,0.207,0.634,0.267,0.793,0.475c-0.056,0.371-0.375,0.683-0.686,0.949c-0.482-0.267-1.061-0.267-1.424-0.742l0.104-0.259
		L108.727,134.891z"/>
	<path fill="#1B3561" d="M109.899,152.632c0.263,0.526,1.32,1.009,0.63,1.639c-0.156,0.156-0.319,0.476-0.53,0.476
		c-0.367-0.476-0.842-1.009-1.205-1.588C109.053,152.898,109.528,152.528,109.899,152.632"/>
	<path fill="#1B3561" d="M111.264,133.154c-0.16-0.267-0.634-0.267-0.846-0.689c0.905-1.424,1.75-2.952,2.755-4.324l0.264,0.052
		l-0.052,0.379l-1.854,3.211c0.267,0.26,0.686,0.26,0.897,0.586c-0.586,1.209-1.276,2.263-2.069,3.323
		c-0.211,0.052-0.423,0-0.579-0.163C110.151,134.683,110.841,133.941,111.264,133.154"/>
	<path fill="#1B3561" d="M111.089,43.713c0.319,0.054,0.315,0.423,0.419,0.636v1.849c-0.107,0.156-0.319,0.105-0.423,0.05
		c-0.259-0.738-0.156-1.637-0.052-2.427L111.089,43.713z"/>
	<path fill="#1B3561" d="M112.135,48.256c1.954,1.853,4.328,2.757,6.805,3.235c0.363,0.899,0.208,2.008,0.363,3.012
		c-0.156,0.315-0.475,0.526-0.846,0.58c-0.259-0.847-0.052-1.902-0.259-2.855c-2.585-0.109-4.903-1.174-6.75-3.022
		c-0.163,0.102-0.371,0.05-0.371-0.159C111.286,48.677,111.768,48.412,112.135,48.256"/>
	<path fill="#1B3561" d="M114.312,90.763c0.634,0.532,1.32,1.061,1.739,1.641c-0.367,0.213-0.894,0.369-1.428,0.369l-1.684-0.905
		c-0.475-0.052-1.113,0.738-1.483-0.052C112.31,91.234,113.311,90.816,114.312,90.763"/>
	<path fill="#1B3561" d="M112.643,34.952l0.208,0.105c0.312,0.848,0.786,1.641,0.89,2.431c-0.259,0.265-0.842,0.688-0.949,0.048
		l-0.786-1.795C111.954,35.373,112.428,35.217,112.643,34.952"/>
	<path fill="#1B3561" d="M112.658,124.024c0.052,0.052,0.208,0.104,0.156,0.208c0,0.111-0.104,0.163-0.156,0.215
		C112.391,124.447,112.502,124.076,112.658,124.024"/>
	<path fill="#1B3561" d="M115.447,126.086c-0.312-0.104-0.786-0.155-0.949-0.526c1.112-1.958,2.069-3.953,3.078-5.963
		c0.052-0.104,0.267-0.052,0.371-0.052l0.104,0.163c-0.742,1.684-1.591,3.322-2.44,4.954c0.211,0.371,0.742,0.371,0.846,0.742
		c-0.479,1.104-1.064,2.218-1.802,3.322c-0.107,0.156-0.371,0.104-0.53-0.111C114.39,127.718,115.184,127.036,115.447,126.086"/>
	<path fill="#1B3561" d="M116.997,22.131h0.267c0.526,0.213,0.89,1.322,1.424,0.851l1.372-1.109c0.215,0,0.371,0.265,0.475,0.424
		l-0.056,0.369l-2.118,2.001c-0.683-0.319-1.102-1.055-1.632-1.639C116.63,22.713,116.893,22.446,116.997,22.131"/>
	<path fill="#1B3561" d="M118.221,91.195c2.425,1.061,4.636,2.753,6.586,4.765c-0.052,0.164,0,0.423-0.215,0.423
		c-2.262-1.379-4.584-2.703-7.009-3.87c-0.052-0.421,0.263-0.844,0.423-1.211L118.221,91.195z"/>
	<path fill="#1B3561" d="M118.732,146.527l1.58,1.854c-0.163,0.423-0.319,0.949-0.742,1.157l-0.215-0.052l-1.684-2.063
		C117.828,147.055,118.31,146.632,118.732,146.527"/>
	<path fill="#1B3561" d="M119.801,117.438c-0.267-0.312-1.113-0.164-0.846-0.742l1.965-4.539c0.156-0.097,0.367-0.045,0.419,0.06
		l0.104,0.104c-0.367,1.269-0.953,2.426-1.487,3.642c0.163,0.312,0.582,0.423,0.793,0.689c-0.319,1.157-1.009,2.314-1.539,3.427
		c-0.104,0.104-0.315,0.104-0.423-0.007l-0.107-0.208L119.801,117.438z"/>
	<path fill="#1B3561" d="M120.869,37.399c1.899,0.85,3.746,1.962,5.644,2.81c1.899,0.903,3.961,1.435,6.016,2.021l1.58,1.8
		c0,0.262-0.319,0.475-0.527,0.577c-0.526-0.369-0.949-1.003-1.476-1.535c-4.436-0.536-8.444-2.338-12.083-4.78
		C120.238,37.926,120.505,37.714,120.869,37.399"/>
	<path fill="#1B3561" d="M122.193,132.599l0.211,0.052c0.631,1.164,1.476,2.225,2.262,3.278c0,0.215-0.263,0.319-0.475,0.423
		l-0.371-0.111c-0.842-0.794-1.528-1.684-2.262-2.537C121.662,133.333,121.926,132.91,122.193,132.599"/>
	<path fill="#1B3561" d="M122.129,17.761c5.6-1.519,11.456,0.076,16.258,2.253c0.264,0.526,0.26,1.214,0.256,1.795l-0.1,0.107
		c-4.695-2.492-10.451-4.039-16.155-2.781C122.022,18.919,122.182,18.182,122.129,17.761"/>
	<path fill="#1B3561" d="M127.177,99.558c0.212-0.052,0.475,0,0.582,0.211c-1.595,4.429-3.4,8.753-5.258,13.085
		c-0.104,0.207-0.319,0.052-0.475,0l-0.052-0.111C123.724,108.367,125.526,103.991,127.177,99.558"/>
	<path fill="#1B3561" d="M123.168,49.706c1.583-0.736,3.115-1.63,4.495-2.894c0.318-0.106,0.419,0.315,0.526,0.426
		c2.273-0.79,4.754-1.155,7.339-1.253c0.163-0.156,0.264-0.581,0.582-0.367l1.105,1.268c0.905-0.524,2.01-0.575,3.012-0.734
		l0.475,1.216c-1.058,0.634-2.744-0.111-3.33,1.316l-0.208-0.004l-1.528-1.693c-2.641,0.152-5.073,0.937-7.454,1.78
		c-0.26-0.054-0.526-0.319-0.63-0.584c-1.32,1.109-2.641,2.16-4.228,2.685C123.164,50.496,123.061,50.075,123.168,49.706"/>
	<path fill="#1B3561" d="M125.5,93.744c1.899,0.901,3.742,2.068,5.222,3.814c0.048,0.107,0.1,0.263-0.004,0.315h-0.319
		c-1.743-1.109-3.687-1.906-5.485-2.971C125.078,94.486,125.078,93.958,125.5,93.744"/>
	<path fill="#1B3561" d="M128.794,132.294c0.263,0,0.263,0.268,0.315,0.423v0.156c-1.054,0.423-2.166,0.846-3.379,1.104
		l-0.107-0.104C126.157,132.502,127.737,132.769,128.794,132.294"/>
	<path fill="#1B3561" d="M127.24,22.945c3.534,0.009,6.705,0.756,9.553,2.29c0.838,0.057,1.739-0.152,2.529,0.061l0.738,1.637
		c-0.16,0.421-0.687,0.106-1.058,0.156l-2.692-0.271c-2.899-1.537-5.963-2.654-9.39-2.924
		C126.813,23.629,126.869,22.999,127.24,22.945"/>
	<path fill="#1B3561" d="M128.968,125.271c0.315-0.208,0.635-0.526,0.95-0.571l0.107,0.156l-1.592,3.53l0.631,1.061
		c4.384-1.84,10.087-2.144,14.945-1.343c0.578,0.949,0.894,2.063,1.205,3.123c-0.155,0.363-0.53,0.415-0.79,0.63l-0.314-0.318
		c-0.212-0.846-0.631-1.64-0.998-2.433c-4.966-0.379-10.194-0.127-14.475,1.765c-0.53-0.371-0.79-1.061-1.265-1.587
		C127.907,127.963,128.489,126.643,128.968,125.271"/>
	<path fill="#1B3561" d="M142.456,113.478l2.696-1.847l0.479,0.059l1.891,2.589c0.16,0.742,0.367,1.483,0.315,2.218
		c-0.318-0.052-0.578-0.475-0.794-0.742c-0.89-1.001-1.684-2.062-2.418-3.174l-1.958,1.209l-11.845,7.899
		c-0.155,0-0.423,0-0.475-0.216l0.215-0.26L142.456,113.478z"/>
	<path fill="#1B3561" d="M131.037,95.5c1.848,0.745,3.538,2.014,4.799,3.653c0.053,0.211-0.215,0.211-0.314,0.159l-4.854-2.811
		C130.774,96.19,130.719,95.708,131.037,95.5"/>
	<path fill="#1B3561" d="M132.613,100.043c0.319-0.1,0.583,0.268,0.842,0.427c0.216,0.526,0.208,1.161,0.156,1.743
		c-0.212,0.155-0.579,0.048-0.842-0.06C132.558,101.523,132.77,100.729,132.613,100.043"/>
	<path fill="#1B3561" d="M134.441,108.656c-0.155-0.215-0.63-0.319-0.37-0.638c0.163-0.215,0.111-0.526,0.374-0.631
		c0.949,0.26,0.738,1.269,0.687,1.951c-0.379,2.744-0.912,5.437-1.869,7.921l-0.212-0.052
		C133.797,114.456,134.435,111.668,134.441,108.656"/>
	<path fill="#1B3561" d="M137.179,88.651c2.007,0.269,4.013,0.642,5.7,1.541c0.315,0.425,0.79,0.848,0.686,1.374
		c-0.107,0.369-0.481,0.369-0.793,0.21c-1.899-0.848-3.854-1.538-6.016-1.91c-0.215-0.319,0.104-0.74,0.163-1.112L137.179,88.651z"
		/>
	<path fill="#1B3561" d="M139.815,18.434c3.379,1.328,6.383,3.816,8.696,6.618c-0.104,0.315-0.578,0.315-0.949,0.369
		c-2.321-2.54-5.007-4.925-8.066-5.932c-0.211-0.319,0.108-0.634,0.16-1.003L139.815,18.434z"/>
	<path fill="#1B3561" d="M139.986,84.801c2.429,0.217,4.591,0.96,6.701,1.914c0.104,0.369-0.268,0.688-0.423,0.949h-0.423
		c-1.958-0.849-4.013-1.487-6.23-1.704c-0.207-0.315,0.06-0.684,0.111-1.055L139.986,84.801z"/>
	<path fill="#1B3561" d="M144.062,80.852c1.002,0.16,1.899,0.53,2.849,0.903c0.215-0.319,0.004-0.95,0.475-0.95
		c1.902,0.425,3.701,1.011,5.273,2.124c0.107,0.475-0.367,0.842-0.367,1.316c1.05,2.909,1.568,6.71,0.504,9.826
		c-0.052,0.102-0.159,0.102-0.263,0.102l-0.104-0.315c0.742-3.272-0.355-6.441-1.09-9.453c0.104-0.105,0.215-0.319,0.06-0.475
		c-1.372-0.849-2.797-1.591-4.384-1.962l-0.104,0.156c0.207,0.371,0.682,0.634,0.734,1.059l-0.104,0.054
		c-1.268-0.532-2.529-1.064-3.904-1.435C143.743,81.486,143.69,81.06,144.062,80.852"/>
	<path fill="#1B3561" d="M144.618,43.313c4.591,0.482,8.492,2.765,11.919,5.939c0.104,0.426-0.215,0.897-0.53,1.105
		c-2.266-1.747-4.64-3.439-7.225-4.5c-1.424-0.584-2.955-1.014-4.432-1.489C144.036,44.048,144.459,43.627,144.618,43.313"/>
	<path fill="#1B3561" d="M145.553,50.44c1.847-0.204,3.856-0.254,5.703-0.091c2.215,1.326,4.269,3.229,6.112,5.188
		c0.052,0.261-0.156,0.421-0.264,0.58c3.742,1.537,7.491,3.08,10.599,6.199v0.319l-1.954,1.366l-0.374-0.105
		c-3.004-2.857-6.538-4.662-10.018-6.624c-0.207-0.156-0.052-0.369,0.056-0.525l0.264-0.319c-1.688-1.8-3.635-3.334-5.533-4.921
		c-1.639-0.164-3.431-0.167-5.018,0.254l-0.155-0.106L145.553,50.44z"/>
	<path fill="#1B3561" d="M146.55,100.814c0.111-1.531-0.204-3.06-0.411-4.491c0.211-0.156,0.419-0.052,0.578,0.163l0.475,0.526
		c0.208,1.48,0.468,3.063,0.045,4.488l-0.371,0.526c0.419,1.956,0.305,4.174,0.2,6.236l3.742,0.689
		c0.211,0.318-0.212,0.586-0.315,0.846c-0.634,0.312-1.32-0.06-2.01-0.111l-2.21-0.586l-0.164-0.208
		c0.271-2.277,0.171-4.65-0.248-6.811C145.705,101.497,146.339,101.289,146.55,100.814"/>
	<path fill="#1B3561" d="M147.666,26.633l0.794,0.058c0.838,0.58,1.313,1.743,2.263,1.902l0.63,0.74l5.333,1.808
		c0.578,0.424,0.89,1.166,1.424,1.587c0.045,0.106,0.101,0.319-0.056,0.369l-0.582-0.054c-2.218-0.953-4.591-1.697-6.965-2.392
		c-1.268-1.003-2.106-2.483-3.315-3.649C147.191,26.793,147.451,26.633,147.666,26.633"/>
	<path fill="#1B3561" d="M148.148,117.445c0.582-0.208,1.275-1.105,1.743-0.415c0.056,0.207,0.475,0.318,0.215,0.578
		c-0.427,0.156-0.741,1.054-1.216,0.631C148.623,117.979,148.204,117.816,148.148,117.445"/>
	<path fill="#1B3561" d="M148.612,124.633c3.011-2.211,5.87-4.421,8.674-7.01l0.212,0.06l1.153,2.744
		c0,0.586-0.475,1.054-0.85,1.477c-0.155,0.052-0.264-0.163-0.155-0.319l0.107-0.104c-0.319-0.786-0.631-1.58-1.002-2.321
		c-2.433,2.365-5.073,4.531-7.884,6.267C148.608,125.367,148.505,124.893,148.612,124.633"/>
	<path fill="#1B3561" d="M149.32,89.415l1.477,1.853c0.89,2.8,0.989,6.18,0.24,9.081c-0.1,0.159-0.367,0.056-0.526,0l-0.104-0.107
		c0.849-3.694-0.145-7.441-1.454-10.666l0.056-0.213L149.32,89.415z"/>
	<path fill="#1B3561" d="M152.873,106.743c1.424,0.741,2.9,1.319,4.169,2.225c0,0.26-0.268,0.423-0.479,0.475l-0.475-0.06
		c-1.372-0.734-2.849-1.216-4.328-1.802C151.976,107.218,152.139,106.104,152.873,106.743"/>
	<path fill="#1B3561" d="M153.125,39.793c3.59,0.801,6.965,1.967,10.132,3.666c0.363,0.526,0.363,1.428,0.26,2.004
		c-0.267,0.159-0.534,0.421-0.846,0.373c-0.263-0.582-0.052-1.428-0.683-1.854c-3.011-1.378-6.066-2.602-9.286-3.453
		C152.439,40.268,152.547,39.424,153.125,39.793"/>
	<path fill="#1B3561" d="M153.519,102.042c0.897,0.268,1.791,0.586,2.585,1.059c0.107,0.319-0.264,0.475-0.427,0.742l-0.267,0.052
		l-2.159-0.853c-0.104,0.052-0.267,0.215-0.37,0C153.044,102.677,153.251,102.31,153.519,102.042"/>
	<path fill="#1B3561" d="M156.185,65.09c1.588-0.471,2.374,1.272,3.427,2.12c2.948,3.595,5.215,7.4,7.05,11.422l-0.052,0.156
		c-0.423,0.054-1.001,0.102-1.164-0.425c-2.1-4.333-5.044-8.355-8.574-12.058c-0.371-0.054-0.794,0.209-1.165,0L156.185,65.09z"/>
	<path fill="#1B3561" d="M161.121,101.427c1.053,0.586,2.113,1.061,3.063,1.8c-0.164,0.208-0.22,0.683-0.586,0.742
		c-1.795-1.009-3.643-1.808-5.541-2.602c-0.312-0.371,0.319-0.687,0.534-1.001L161.121,101.427z"/>
	<path fill="#1B3561" d="M158.577,33.785c0.682,0.213,1.32,0.532,1.95,0.851l0.468,2.533l1.531,0.642
		c0.423,1.371,0.419,2.954,0.679,4.432c-0.155,0.266-0.631,0.106-0.949,0.106c-0.319-1.113-0.419-2.377-0.631-3.592
		c-0.574-0.213-1.424-0.163-1.684-0.953l-0.415-2.062l-0.897-0.528c-0.107-0.425-0.208-0.847-0.264-1.322L158.577,33.785z"/>
	<path fill="#1B3561" d="M161.767,96.784c3.749,0.797,7.172,2.18,10.603,3.768c1.798-1.473,3.334-3.264,4.869-4.951
		c0.267,0,0.267,0.267,0.315,0.475l-0.212,0.367c-1.587,1.743-3.33,3.586-5.236,4.902c-3.586-1.487-7.176-2.814-11.081-3.612
		c-0.264-0.319,0.215-0.638,0.319-0.901L161.767,96.784z"/>
	<path fill="#1B3561" d="M165.312,43.989l0.267,0.107c2.263,3.067,4.206,6.241,5.941,9.466v0.262l-1.269,0.524
		c-1.787-3.117-3.679-6.186-5.678-9.197c-0.211-0.319-0.686,0.315-0.741-0.265L165.312,43.989z"/>
	<path fill="#1B3561" d="M165.905,110.251c0.897,0.008,0.526,1.009,0.793,1.483c0.101,0.371-0.318,0.475-0.534,0.578l-0.159-0.052
		c-0.208-0.586-0.363-1.269-0.312-1.958L165.905,110.251z"/>
	<path fill="#1B3561" d="M167.065,63.635c4.428,4.076,7.054,9.043,8.682,14.328c0.052,0.263-0.267,0.263-0.423,0.209l-1.005-0.213
		c-1.991-4.914-4.677-9.512-8.362-13.693C166.164,63.845,166.646,63.743,167.065,63.635"/>
	<path fill="#1B3561" d="M166.65,36.285c5.752-0.143,10.343,2.609,14.771,5.735l1.743,1.483c0.101,0.579,0.468,1.057,0.416,1.585
		c-0.479,0.208-0.842-0.373-1.209-0.586c-4.747-3.653-9.706-6.831-15.933-7.005C166.438,37.128,165.805,36.281,166.65,36.285"/>
	<path fill="#1B3561" d="M167.284,108.723c0.579-0.104,0.794,0.431,0.794,0.854c0.045,0.26,0.1,0.578-0.008,0.786
		c-0.155,0.104-0.318,0.215-0.578,0.215c-0.264-0.526-0.208-1.164-0.363-1.795L167.284,108.723z"/>
	<path fill="#1B3561" d="M168.449,84.178c0.897-0.369,0.786,0.686,1.001,1.059c0.26,0.529-0.482,0.79-0.794,1.105l-0.163-0.054
		c-0.211-0.634-0.475-1.32-0.519-2.004L168.449,84.178z"/>
	<path fill="#1B3561" d="M169.405,104.295c0.315,1.372,0.36,2.907,0.571,4.384c-0.215,0.207-0.582,0.475-0.846,0.371
		c-0.259-1.536-0.519-3.123-0.675-4.651C168.716,104.132,169.087,104.398,169.405,104.295"/>
	<path fill="#1B3561" d="M171.416,54.616c0.419,0.213,0.419,0.634,0.737,0.899l4.536,2.071c0.997,1.374,1.787,2.802,2.625,4.178
		v0.159l-1.316,0.523c-0.737-0.899-1.42-1.906-2.162-2.753l-4.164-2.487c-0.419,0.208-0.687-0.267-0.842-0.586l-0.738-1.428
		C170.467,54.931,170.993,54.775,171.416,54.616"/>
	<path fill="#1B3561" d="M173.871,89.945c0.904-3.695,0.704-8.025,0.186-11.772c0.318-0.054,0.737,0.105,1.053,0.213
		c0.734,1.902,0.415,4.381,0.356,6.494c-0.268,3.059-0.965,6.019-2.292,8.654c-0.419-0.213,0.007-0.848,0.059-1.269L173.871,89.945z
		"/>
	<path fill="#1B3561" d="M178.781,91.274c2.647-4.007,4.977-8.171,6.148-12.763c0.056-0.107,0.267-0.107,0.318,0l0.26,0.899
		c-1.802,5.537-4.562,10.656-8.688,15.132c-0.319,0.054-0.212-0.315-0.107-0.475L178.781,91.274z"/>
	<path fill="#1B3561" d="M178.707,100.777c0.63,0.475,0.63,1.428,0.786,2.168c-0.268,0.26-0.583,0.578-0.953,0.578
		c-0.315-0.534-0.152-1.374-0.734-1.741C177.913,101.356,178.388,101.041,178.707,100.777"/>
	<path fill="#1B3561" d="M179.586,61.128c1.635-1,3.438-1.63,5.125-2.521c1.213,0.847,2.373,1.956,3.586,2.807
		c5.059,3.707,10.384,6.777,16.347,8.324c0.268,0.265,0,0.527-0.052,0.793l-0.159,0.102c-7.547-1.812-14.296-5.627-20.516-10.762
		c-1.376,0.421-2.589,1.208-3.912,1.732C179.793,61.603,179.586,61.341,179.586,61.128"/>
	<path fill="#1B3561" d="M182.159,138.376c3.957,0.438,7.703,1.283,11.4,2.3c0.155,0.578,0.155,1.32-0.004,1.898
		c-0.26,0.215-0.479,0.475-0.846,0.475l-0.104-1.372c-3.583-0.904-7.18-1.654-10.922-2.188l-2.062,0.941
		c-0.375,0-0.16-0.526-0.16-0.741L182.159,138.376z"/>
	<path fill="#1B3561" d="M185.152,75.185c0.312,0.475,0.475,1.057-0.008,1.532c-0.104,0.159-0.312,0.211-0.526,0.208
		c-1.054-0.58,0.06-1.211,0.371-1.739H185.152z"/>
	<path fill="#1B3561" d="M187.185,134.223c3.59,0.586,7.128,1.328,10.45,2.447c0.738,0,1.372-0.363,2.063-0.519
		c0.312,0.155,0.155,0.571,0.312,0.786l-0.319,0.215l-2.589,0.363c-3.479-0.904-7.017-1.602-10.547-2.239
		C186.391,134.854,186.917,134.482,187.185,134.223"/>
	<path fill="#1B3561" d="M189.706,68.647c1.424,0.955,2.796,2.227,4.058,3.39c0.894,1.693,1.468,3.542,2.202,5.285
		c0.052,0.369-0.423,0.263-0.682,0.263c-0.427-0.054,0.048-0.369-0.216-0.634l-1.728-3.543c-1.48-1.424-3.06-2.7-4.592-3.916
		C188.912,69.07,189.387,68.856,189.706,68.647"/>
	<path fill="#1B3561" d="M199.812,82.767c0.527,0.425,0.949,1.007,1.265,1.587c1.877,8.769,3.13,17.902,2.997,27.357
		c0,0.104-0.156,0.104-0.26,0.052l-0.475-0.63c0.022-9.93-1.491-19.279-3.635-28.313L199.812,82.767z"/>
	<path fill="#1B3561" d="M202.815,133.354c0.16-0.052,0.367,0.111,0.315,0.268l-0.052,0.578l-3.067,1.788
		c-0.426-0.052-0.207-0.638-0.207-0.897L202.815,133.354z"/>
	<path fill="#1B3561" d="M204.236,112.343l0.312,0.43c1.632,3.85,3.152,7.766,4.413,11.778l-0.371,0.475
		c1.05,2.433,2.203,4.807,3.148,7.239c-0.315,0.475-0.842,0.897-1.269,1.32c1.153,2.589,2.422,5.125,3.52,7.766
		c-0.318,0.475-0.793,0.897-1.269,1.217c-0.475-0.053-1.104,0.044-1.476-0.164c0.319-0.533,0.897-0.845,1.372-1.268
		c-0.994-2.589-2.311-5.178-3.516-7.766c0.208-0.527,0.794-0.794,1.157-1.217c-0.942-2.536-2.203-5.065-3.197-7.662
		c0.156-0.207,0.476-0.155,0.687-0.312c-1.209-3.648-2.577-7.187-4.149-10.673c-0.846-0.267-1.795-0.215-2.692-0.43
		c-0.053-0.371,0.53-0.579,0.793-0.846L204.236,112.343z"/>
	<path fill="#1B3561" d="M203.828,128.022c0.267,0.052,0.689-0.26,0.794,0.163c0.056,0.207,0.211,0.475,0.052,0.63
		c-0.526,0.156-1.002,0.579-1.584,0.319C203.246,128.764,203.302,128.186,203.828,128.022"/>
	<path fill="#1B3561" d="M204.681,125.812c0.367,0.208,0.312,0.742,0.423,1.054c-0.267,0.104-0.638,0.104-0.793-0.156
		C204.362,126.391,204.518,126.02,204.681,125.812"/>
	<path fill="#1B3561" d="M225.375,175.432l4.009,0.534c0.107,0.267,0.211,0.638,0.056,0.905c-1.38,0.363-2.804-0.067-4.173-0.223
		l-0.211-0.104c-0.052-0.423-0.526-0.904-0.371-1.327L225.375,175.432z"/>
	<path fill="#FFFFFF" d="M114.216,42.039c0.845-0.421,1.743-0.74,2.637-1.001c0.686,0.846,1.268,1.795,1.531,2.852
		c-0.793,0.523-1.743,0.79-2.588,1.109c-0.734-0.844-1.105-1.851-1.635-2.8L114.216,42.039z"/>
	<path fill="#FFFFFF" d="M116.749,40.032c2.058-1.001,5.122-0.74,6.861,0.742c0.638,0.475,1.005,1.109,1.424,1.689
		c-0.471,1.53-1.687,3.221-3.267,3.748c-0.742,0.107-1.324,0.583-2.114,0.475c-0.423-0.424-0.423-1.109-0.69-1.689
		c0.53-0.528,1.113-1.055,1.691-1.637l-0.211-0.265c-1.213-1.003-2.533-1.74-3.75-2.798L116.749,40.032z"/>
	<polygon fill="#1B3561" points="225.604,193.218 224.484,193.218 224.484,188.797 222.86,188.797 222.86,187.841 227.229,187.841 
		227.229,188.797 225.604,188.797 	"/>
	<polygon fill="#1B3561" points="233.051,193.218 231.998,193.218 231.998,188.73 231.983,188.73 230.981,193.218 229.884,193.218 
		228.905,188.73 228.891,188.73 228.891,193.218 227.837,193.218 227.837,187.848 229.483,187.848 230.455,192.075 230.47,192.075 
		231.427,187.848 233.051,187.848 	"/>
</g>
</svg>
